Open Sans-ExtraBold Condensed.ufo
<glyph name="quotedbl" format="1">
  <advance width="1011"/>
  <unicode hex="0022"/>
  <note>
    quotedbl
  </note>
  <outline>
    <contour>
      <point x="618" y="934" type="line"/>
      <point x="850" y="934" type="line"/>
      <point x="896" y="1462" type="line"/>
      <point x="573" y="1462" type="line"/>
    </contour>
    <contour>
      <point x="159" y="934" type="line"/>
      <point x="391" y="934" type="line"/>
      <point x="438" y="1462" type="line"/>
      <point x="116" y="1462" type="line"/>
    </contour>
  </outline>
</glyph>
<glyph name="parenleft" format="1">
  <advance width="709"/>
  <unicode hex="0028"/>
  <note>
    parenleft
  </note>
  <outline>
    <contour>
      <point x="364" y="-324" type="curve"/>
      <point x="664" y="-324" type="line"/>
      <point x="484" y="-79"/>
      <point x="377" y="231"/>
      <point x="377" y="563" type="curve" smooth="yes"/>
      <point x="377" y="892"/>
      <point x="475" y="1209"/>
      <point x="666" y="1462" type="curve"/>
      <point x="364" y="1462" type="line"/>
      <point x="166" y="1227"/>
      <point x="61" y="918"/>
      <point x="61" y="561" type="curve" smooth="yes"/>
      <point x="61" y="210"/>
      <point x="165" y="-94"/>
    </contour>
  </outline>
</glyph>
<glyph name="plus" format="1">
  <advance width="960"/>
  <unicode hex="002B"/>
  <note>
    plus
  </note>
  <outline>
    <contour>
      <point x="356" y="250" type="line"/>
      <point x="603" y="250" type="line"/>
      <point x="603" y="590" type="line"/>
      <point x="833" y="590" type="line"/>
      <point x="833" y="852" type="line"/>
      <point x="603" y="852" type="line"/>
      <point x="603" y="1198" type="line"/>
      <point x="356" y="1198" type="line"/>
      <point x="356" y="852" type="line"/>
      <point x="126" y="852" type="line"/>
      <point x="126" y="590" type="line"/>
      <point x="356" y="590" type="line"/>
    </contour>
  </outline>
</glyph>
<glyph name="hyphen" format="1">
  <advance width="703"/>
  <unicode hex="002D"/>
  <outline>
    <contour>
      <point x="81" y="402" type="line"/>
      <point x="623" y="402" type="line"/>
      <point x="623" y="693" type="line"/>
      <point x="81" y="693" type="line"/>
    </contour>
  </outline>
</glyph>
<glyph name="five" format="1">
  <advance width="1004"/>
  <unicode hex="0035"/>
  <outline>
    <contour>
      <point x="426" y="-20" type="curve" smooth="yes"/>
      <point x="738" y="-20"/>
      <point x="917" y="163"/>
      <point x="917" y="494" type="curve" smooth="yes"/>
      <point x="917" y="766"/>
      <point x="776" y="933"/>
      <point x="556" y="933" type="curve" smooth="yes"/>
      <point x="509" y="933"/>
      <point x="473" y="930"/>
      <point x="446" y="925" type="curve"/>
      <point x="458" y="1156" type="line"/>
      <point x="840" y="1156" type="line"/>
      <point x="840" y="1462" type="line"/>
      <point x="161" y="1462" type="line"/>
      <point x="116" y="690" type="line"/>
      <point x="220" y="623" type="line"/>
      <point x="278" y="646"/>
      <point x="333" y="657"/>
      <point x="382" y="657" type="curve" smooth="yes"/>
      <point x="511" y="657"/>
      <point x="568" y="591"/>
      <point x="568" y="464" type="curve" smooth="yes"/>
      <point x="568" y="325"/>
      <point x="513" y="275"/>
      <point x="385" y="275" type="curve" smooth="yes"/>
      <point x="292" y="275"/>
      <point x="152" y="328"/>
      <point x="86" y="377" type="curve"/>
      <point x="86" y="61" type="line"/>
      <point x="174" y="7"/>
      <point x="288" y="-20"/>
    </contour>
  </outline>
</glyph>
<glyph name="seven" format="1">
  <advance width="1004"/>
  <unicode hex="0037"/>
  <outline>
    <contour>
      <point x="174" y="0" type="line"/>
      <point x="531" y="0" type="line"/>
      <point x="913" y="1232" type="line"/>
      <point x="913" y="1459" type="line"/>
      <point x="90" y="1459" type="line"/>
      <point x="90" y="1156" type="line"/>
      <point x="565" y="1156" type="line"/>
    </contour>
  </outline>
</glyph>
<glyph name="at" format="1">
  <advance width="1593"/>
  <unicode hex="0040"/>
  <note>
    at
  </note>
  <outline>
    <contour>
      <point x="804" y="-163" type="curve" smooth="yes"/>
      <point x="954" y="-163"/>
      <point x="1099" y="-130"/>
      <point x="1228" y="-64" type="curve"/>
      <point x="1228" y="157" type="line"/>
      <point x="1074" y="89"/>
      <point x="931" y="58"/>
      <point x="808" y="58" type="curve" smooth="yes"/>
      <point x="492" y="58"/>
      <point x="312" y="263"/>
      <point x="312" y="611" type="curve" smooth="yes"/>
      <point x="312" y="970"/>
      <point x="504" y="1261"/>
      <point x="850" y="1261" type="curve" smooth="yes"/>
      <point x="1158" y="1261"/>
      <point x="1283" y="1074"/>
      <point x="1283" y="753" type="curve" smooth="yes"/>
      <point x="1283" y="625"/>
      <point x="1256" y="436"/>
      <point x="1182" y="436" type="curve" smooth="yes"/>
      <point x="1164" y="436"/>
      <point x="1149" y="445"/>
      <point x="1139" y="464" type="curve" smooth="yes"/>
      <point x="1129" y="483"/>
      <point x="1124" y="517"/>
      <point x="1124" y="570" type="curve" smooth="yes"/>
      <point x="1124" y="579"/>
      <point x="1124" y="589"/>
      <point x="1124" y="598" type="curve" smooth="yes"/>
      <point x="1147" y="1060" type="line"/>
      <point x="1038" y="1092"/>
      <point x="930" y="1108"/>
      <point x="858" y="1108" type="curve" smooth="yes"/>
      <point x="594" y="1108"/>
      <point x="444" y="890"/>
      <point x="444" y="603" type="curve" smooth="yes"/>
      <point x="444" y="350"/>
      <point x="561" y="231"/>
      <point x="730" y="231" type="curve" smooth="yes"/>
      <point x="841" y="231"/>
      <point x="906" y="283"/>
      <point x="971" y="342" type="curve"/>
      <point x="977" y="342" type="line"/>
      <point x="1006" y="285"/>
      <point x="1083" y="231"/>
      <point x="1190" y="231" type="curve" smooth="yes"/>
      <point x="1395" y="231"/>
      <point x="1531" y="432"/>
      <point x="1531" y="761" type="curve" smooth="yes"/>
      <point x="1531" y="1221"/>
      <point x="1301" y="1480"/>
      <point x="852" y="1480" type="curve" smooth="yes"/>
      <point x="366" y="1480"/>
      <point x="58" y="1104"/>
      <point x="58" y="604" type="curve" smooth="yes"/>
      <point x="58" y="134"/>
      <point x="342" y="-163"/>
    </contour>
    <contour>
      <point x="781" y="436" type="curve" smooth="yes"/>
      <point x="752" y="436"/>
      <point x="731" y="452"/>
      <point x="716" y="491" type="curve" smooth="yes"/>
      <point x="703" y="524"/>
      <point x="698" y="565"/>
      <point x="698" y="613" type="curve" smooth="yes"/>
      <point x="698" y="711"/>
      <point x="719" y="788"/>
      <point x="751" y="838" type="curve" smooth="yes"/>
      <point x="774" y="874"/>
      <point x="804" y="898"/>
      <point x="840" y="898" type="curve" smooth="yes"/>
      <point x="857" y="898"/>
      <point x="883" y="893"/>
      <point x="897" y="886" type="curve"/>
      <point x="886" y="690" type="line" smooth="yes"/>
      <point x="881" y="599"/>
      <point x="868" y="535"/>
      <point x="854" y="499" type="curve" smooth="yes"/>
      <point x="840" y="463"/>
      <point x="818" y="436"/>
    </contour>
  </outline>
</glyph>
<glyph name="F" format="1">
  <advance width="885"/>
  <unicode hex="0046"/>
  <outline>
    <contour>
      <point x="460" y="557" type="line"/>
      <point x="796" y="557" type="line"/>
      <point x="796" y="853" type="line"/>
      <point x="460" y="853" type="line"/>
      <point x="460" y="1166" type="line"/>
      <point x="823" y="1166" type="line"/>
      <point x="823" y="1462" type="line"/>
      <point x="115" y="1462" type="line"/>
      <point x="115" y="0" type="line"/>
      <point x="460" y="0" type="line"/>
    </contour>
    <contour>
      <point x="442" y="0" type="move" name="bottom"/>
    </contour>
    <contour>
      <point x="442" y="1462" type="move" name="top"/>
    </contour>
  </outline>
</glyph>
<glyph name="H" format="1">
  <advance width="1219"/>
  <unicode hex="0048"/>
  <outline>
    <contour>
      <point x="1103" y="1462" type="line"/>
      <point x="756" y="1462" type="line"/>
      <point x="756" y="910" type="line"/>
      <point x="462" y="910" type="line"/>
      <point x="462" y="1462" type="line"/>
      <point x="115" y="1462" type="line"/>
      <point x="115" y="0" type="line"/>
      <point x="462" y="0" type="line"/>
      <point x="462" y="608" type="line"/>
      <point x="756" y="608" type="line"/>
      <point x="756" y="0" type="line"/>
      <point x="1103" y="0" type="line"/>
    </contour>
    <contour>
      <point x="610" y="0" type="move" name="bottom"/>
    </contour>
    <contour>
      <point x="610" y="731" type="move" name="center"/>
    </contour>
    <contour>
      <point x="610" y="1462" type="move" name="top"/>
    </contour>
    <contour>
      <point x="20" y="1462" type="move" name="topleft"/>
    </contour>
  </outline>
</glyph>
<glyph name="L" format="1">
  <advance width="871"/>
  <unicode hex="004C"/>
  <outline>
    <contour>
      <point x="825" y="0" type="line"/>
      <point x="825" y="300" type="line"/>
      <point x="462" y="300" type="line"/>
      <point x="462" y="1462" type="line"/>
      <point x="115" y="1462" type="line"/>
      <point x="115" y="0" type="line"/>
    </contour>
    <contour>
      <point x="436" y="0" type="move" name="bottom"/>
    </contour>
    <contour>
      <point x="436" y="731" type="move" name="center"/>
    </contour>
    <contour>
      <point x="436" y="1462" type="move" name="top"/>
    </contour>
    <contour>
      <point x="851" y="1462" type="move" name="topright"/>
    </contour>
  </outline>
</glyph>
<glyph name="T" format="1">
  <advance width="960"/>
  <unicode hex="0054"/>
  <outline>
    <contour>
      <point x="653" y="1161" type="line"/>
      <point x="928" y="1161" type="line"/>
      <point x="928" y="1462" type="line"/>
      <point x="33" y="1462" type="line"/>
      <point x="33" y="1161" type="line"/>
      <point x="308" y="1161" type="line"/>
      <point x="308" y="0" type="line"/>
      <point x="653" y="0" type="line"/>
    </contour>
    <contour>
      <point x="480" y="0" type="move" name="bottom"/>
    </contour>
    <contour>
      <point x="480" y="731" type="move" name="center"/>
    </contour>
    <contour>
      <point x="480" y="1462" type="move" name="top"/>
    </contour>
  </outline>
</glyph>
<glyph name="backslash" format="1">
  <advance width="878"/>
  <unicode hex="005C"/>
  <note>
    backslash
  </note>
  <outline>
    <contour>
      <point x="553" y="0" type="line"/>
      <point x="878" y="0" type="line"/>
      <point x="325" y="1462" type="line"/>
      <point x="-2" y="1462" type="line"/>
    </contour>
  </outline>
</glyph>
<glyph name="bracketright" format="1">
  <advance width="652"/>
  <unicode hex="005D"/>
  <note>
    bracketright
  </note>
  <outline>
    <contour>
      <point x="36" y="-324" type="line"/>
      <point x="535" y="-324" type="line"/>
      <point x="535" y="1462" type="line"/>
      <point x="36" y="1462" type="line"/>
      <point x="36" y="1217" type="line"/>
      <point x="224" y="1217" type="line"/>
      <point x="224" y="-78" type="line"/>
      <point x="36" y="-78" type="line"/>
    </contour>
  </outline>
</glyph>
<glyph name="b" format="1">
  <advance width="1069"/>
  <unicode hex="0062"/>
  <outline>
    <contour>
      <point x="654" y="-20" type="curve" smooth="yes"/>
      <point x="877" y="-20"/>
      <point x="1003" y="196"/>
      <point x="1003" y="561" type="curve" smooth="yes"/>
      <point x="1003" y="928"/>
      <point x="876" y="1149"/>
      <point x="668" y="1149" type="curve" smooth="yes"/>
      <point x="572" y="1149"/>
      <point x="500" y="1102"/>
      <point x="437" y="980" type="curve"/>
      <point x="421" y="980" type="line"/>
      <point x="431" y="1093"/>
      <point x="439" y="1193"/>
      <point x="439" y="1243" type="curve" smooth="yes"/>
      <point x="439" y="1556" type="line"/>
      <point x="99" y="1556" type="line"/>
      <point x="99" y="0" type="line"/>
      <point x="346" y="0" type="line"/>
      <point x="405" y="117" type="line"/>
      <point x="426" y="117" type="line"/>
      <point x="496" y="11"/>
      <point x="570" y="-20"/>
    </contour>
    <contour>
      <point x="544" y="270" type="curve" smooth="yes"/>
      <point x="446" y="270"/>
      <point x="439" y="415"/>
      <point x="439" y="579" type="curve" smooth="yes"/>
      <point x="439" y="607" type="line" smooth="yes"/>
      <point x="439" y="742"/>
      <point x="456" y="863"/>
      <point x="541" y="863" type="curve" smooth="yes"/>
      <point x="620" y="863"/>
      <point x="657" y="762"/>
      <point x="657" y="568" type="curve" smooth="yes"/>
      <point x="657" y="435"/>
      <point x="640" y="270"/>
    </contour>
    <contour>
      <point x="535" y="0" type="move" name="bottom"/>
    </contour>
    <contour>
      <point x="535" y="1127" type="move" name="top"/>
    </contour>
  </outline>
</glyph>
<glyph name="f" format="1">
  <advance width="680"/>
  <unicode hex="0066"/>
  <outline>
    <contour>
      <point x="158" y="0" type="line"/>
      <point x="498" y="0" type="line"/>
      <point x="498" y="861" type="line"/>
      <point x="688" y="861" type="line"/>
      <point x="688" y="1127" type="line"/>
      <point x="498" y="1127" type="line"/>
      <point x="498" y="1205" type="line" smooth="yes"/>
      <point x="498" y="1237"/>
      <point x="506" y="1273"/>
      <point x="522" y="1283" type="curve" smooth="yes"/>
      <point x="527" y="1286"/>
      <point x="532" y="1286"/>
      <point x="540" y="1286" type="curve" smooth="yes"/>
      <point x="600" y="1286"/>
      <point x="632" y="1282"/>
      <point x="675" y="1261" type="curve"/>
      <point x="761" y="1513" type="line"/>
      <point x="685" y="1549"/>
      <point x="615" y="1567"/>
      <point x="521" y="1567" type="curve" smooth="yes"/>
      <point x="271" y="1567"/>
      <point x="158" y="1441"/>
      <point x="158" y="1210" type="curve" smooth="yes"/>
      <point x="158" y="1125" type="line"/>
      <point x="33" y="1027" type="line"/>
      <point x="33" y="861" type="line"/>
      <point x="158" y="861" type="line"/>
    </contour>
    <contour>
      <point x="340" y="0" type="move" name="bottom"/>
    </contour>
    <contour>
      <point x="340" y="1127" type="move" name="top"/>
    </contour>
  </outline>
</glyph>
<glyph name="p" format="1">
  <advance width="1069"/>
  <unicode hex="0070"/>
  <outline>
    <contour>
      <point x="99" y="-492" type="line"/>
      <point x="442" y="-492" type="line"/>
      <point x="442" y="-66" type="line" smooth="yes"/>
      <point x="442" y="-47"/>
      <point x="437" y="4"/>
      <point x="422" y="117" type="curve"/>
      <point x="437" y="117" type="line"/>
      <point x="504" y="13"/>
      <point x="569" y="-20"/>
      <point x="653" y="-20" type="curve" smooth="yes"/>
      <point x="872" y="-20"/>
      <point x="1003" y="204"/>
      <point x="1003" y="570" type="curve" smooth="yes"/>
      <point x="1003" y="927"/>
      <point x="878" y="1148"/>
      <point x="673" y="1148" type="curve" smooth="yes"/>
      <point x="573" y="1148"/>
      <point x="490" y="1096"/>
      <point x="435" y="983" type="curve"/>
      <point x="422" y="983" type="line"/>
      <point x="360" y="1127" type="line"/>
      <point x="99" y="1127" type="line"/>
    </contour>
    <contour>
      <point x="547" y="270" type="curve" smooth="yes"/>
      <point x="455" y="270"/>
      <point x="439" y="410"/>
      <point x="439" y="566" type="curve" smooth="yes"/>
      <point x="439" y="602" type="line" smooth="yes"/>
      <point x="439" y="735"/>
      <point x="456" y="863"/>
      <point x="547" y="863" type="curve" smooth="yes"/>
      <point x="646" y="863"/>
      <point x="657" y="715"/>
      <point x="657" y="573" type="curve" smooth="yes"/>
      <point x="657" y="425"/>
      <point x="641" y="270"/>
    </contour>
    <contour>
      <point x="535" y="0" type="move" name="bottom"/>
    </contour>
    <contour>
      <point x="535" y="1127" type="move" name="top"/>
    </contour>
  </outline>
</glyph>
<glyph name="bar" format="1">
  <advance width="1132"/>
  <unicode hex="007C"/>
  <note>
    bar
  </note>
  <outline>
    <contour>
      <point x="439" y="-462" type="line"/>
      <point x="694" y="-462" type="line"/>
      <point x="694" y="1549" type="line"/>
      <point x="439" y="1549" type="line"/>
    </contour>
  </outline>
</glyph>
<glyph name="sterling" format="1">
  <advance width="1004"/>
  <unicode hex="00A3"/>
  <note>
    sterling
  </note>
  <outline>
    <contour>
      <point x="68" y="0" type="line"/>
      <point x="974" y="0" type="line"/>
      <point x="974" y="305" type="line"/>
      <point x="435" y="305" type="line"/>
      <point x="533" y="376"/>
      <point x="570" y="459"/>
      <point x="570" y="571" type="curve" smooth="yes"/>
      <point x="570" y="637" type="line"/>
      <point x="807" y="637" type="line"/>
      <point x="807" y="891" type="line"/>
      <point x="570" y="891" type="line"/>
      <point x="570" y="1044" type="line" smooth="yes"/>
      <point x="570" y="1140"/>
      <point x="604" y="1193"/>
      <point x="661" y="1193" type="curve" smooth="yes"/>
      <point x="721" y="1193"/>
      <point x="788" y="1174"/>
      <point x="845" y="1149" type="curve"/>
      <point x="941" y="1419" type="line"/>
      <point x="850" y="1462"/>
      <point x="750" y="1483"/>
      <point x="637" y="1483" type="curve" smooth="yes"/>
      <point x="379" y="1483"/>
      <point x="230" y="1325"/>
      <point x="230" y="1051" type="curve" smooth="yes"/>
      <point x="230" y="891" type="line"/>
      <point x="77" y="891" type="line"/>
      <point x="77" y="637" type="line"/>
      <point x="230" y="637" type="line"/>
      <point x="230" y="537" type="line" smooth="yes"/>
      <point x="230" y="491"/>
      <point x="226" y="455"/>
      <point x="213" y="423" type="curve" smooth="yes"/>
      <point x="193" y="375"/>
      <point x="152" y="338"/>
      <point x="68" y="292" type="curve"/>
    </contour>
  </outline>
</glyph>
<glyph name="brokenbar" format="1">
  <advance width="1132"/>
  <unicode hex="00A6"/>
  <note>
    brokenbar
  </note>
  <outline>
    <contour>
      <point x="439" y="-462" type="line"/>
      <point x="694" y="-462" type="line"/>
      <point x="694" y="352" type="line"/>
      <point x="439" y="352" type="line"/>
    </contour>
    <contour>
      <point x="439" y="737" type="line"/>
      <point x="694" y="737" type="line"/>
      <point x="694" y="1549" type="line"/>
      <point x="439" y="1549" type="line"/>
    </contour>
  </outline>
</glyph>
<glyph name="ordmasculine" format="1">
  <advance width="715"/>
  <unicode hex="00BA"/>
  <note>
    ordmasculine
  </note>
  <outline>
    <contour>
      <point x="658" y="1110" type="curve" smooth="yes"/>
      <point x="658" y="1328"/>
      <point x="538" y="1479"/>
      <point x="358" y="1479" type="curve" smooth="yes"/>
      <point x="171" y="1479"/>
      <point x="57" y="1343"/>
      <point x="57" y="1110" type="curve" smooth="yes"/>
      <point x="57" y="890"/>
      <point x="177" y="738"/>
      <point x="356" y="738" type="curve" smooth="yes"/>
      <point x="539" y="738"/>
      <point x="658" y="878"/>
    </contour>
    <contour>
      <point x="265" y="1110" type="curve" smooth="yes"/>
      <point x="265" y="1233"/>
      <point x="290" y="1291"/>
      <point x="359" y="1291" type="curve" smooth="yes"/>
      <point x="423" y="1291"/>
      <point x="450" y="1232"/>
      <point x="450" y="1110" type="curve" smooth="yes"/>
      <point x="450" y="988"/>
      <point x="421" y="925"/>
      <point x="359" y="925" type="curve" smooth="yes"/>
      <point x="295" y="925"/>
      <point x="265" y="988"/>
    </contour>
  </outline>
</glyph>
<glyph name="Hbar" format="1">
  <advance width="1219"/>
  <unicode hex="0126"/>
  <note>
    Hbar
  </note>
  <outline>
    <contour>
      <point x="1103" y="1462" type="line"/>
      <point x="756" y="1462" type="line"/>
      <point x="756" y="1289" type="line"/>
      <point x="462" y="1289" type="line"/>
      <point x="462" y="1462" type="line"/>
      <point x="115" y="1462" type="line"/>
      <point x="115" y="1289" type="line"/>
      <point x="-17" y="1289" type="line"/>
      <point x="-17" y="1058" type="line"/>
      <point x="115" y="1058" type="line"/>
      <point x="115" y="0" type="line"/>
      <point x="462" y="0" type="line"/>
      <point x="462" y="608" type="line"/>
      <point x="756" y="608" type="line"/>
      <point x="756" y="0" type="line"/>
      <point x="1103" y="0" type="line"/>
      <point x="1103" y="1058" type="line"/>
      <point x="1237" y="1058" type="line"/>
      <point x="1237" y="1289" type="line"/>
      <point x="1103" y="1289" type="line"/>
    </contour>
    <contour>
      <point x="462" y="909" type="line"/>
      <point x="462" y="1058" type="line"/>
      <point x="756" y="1058" type="line"/>
      <point x="756" y="909" type="line"/>
    </contour>
  </outline>
</glyph>
<glyph name="Ldot" format="1">
  <advance width="871"/>
  <unicode hex="013F"/>
  <note>
    Ldot
  </note>
  <outline>
    <contour>
      <point x="825" y="0" type="line"/>
      <point x="825" y="300" type="line"/>
      <point x="462" y="300" type="line"/>
      <point x="462" y="1462" type="line"/>
      <point x="115" y="1462" type="line"/>
      <point x="115" y="0" type="line"/>
    </contour>
    <contour>
      <point x="524" y="765" type="curve" smooth="yes"/>
      <point x="524" y="653"/>
      <point x="589" y="600"/>
      <point x="714" y="600" type="curve" smooth="yes"/>
      <point x="838" y="600"/>
      <point x="908" y="653"/>
      <point x="908" y="765" type="curve" smooth="yes"/>
      <point x="908" y="874"/>
      <point x="844" y="928"/>
      <point x="714" y="928" type="curve" smooth="yes"/>
      <point x="585" y="928"/>
      <point x="524" y="874"/>
    </contour>
  </outline>
</glyph>
<glyph name="Lslash" format="1">
  <advance width="930"/>
  <unicode hex="0141"/>
  <note>
    Lslash
  </note>
  <outline>
    <contour>
      <point x="882" y="0" type="line"/>
      <point x="882" y="300" type="line"/>
      <point x="521" y="300" type="line"/>
      <point x="521" y="729" type="line"/>
      <point x="741" y="903" type="line"/>
      <point x="589" y="1117" type="line"/>
      <point x="521" y="1055" type="line"/>
      <point x="521" y="1462" type="line"/>
      <point x="175" y="1462" type="line"/>
      <point x="175" y="797" type="line"/>
      <point x="-28" y="645" type="line"/>
      <point x="120" y="426" type="line"/>
      <point x="175" y="471" type="line"/>
      <point x="175" y="0" type="line"/>
    </contour>
  </outline>
</glyph>
<glyph name="Eng" format="1">
  <advance width="1364"/>
  <unicode hex="014A"/>
  <note>
    Eng
  </note>
  <outline>
    <contour>
      <point x="793" y="-445" type="curve" smooth="yes"/>
      <point x="1075" y="-445"/>
      <point x="1249" y="-244"/>
      <point x="1249" y="74" type="curve" smooth="yes"/>
      <point x="1249" y="1462" type="line"/>
      <point x="932" y="1462" type="line"/>
      <point x="932" y="1135" type="line" smooth="yes"/>
      <point x="932" y="1015"/>
      <point x="939" y="863"/>
      <point x="956" y="677" type="curve"/>
      <point x="941" y="677" type="line"/>
      <point x="521" y="1462" type="line"/>
      <point x="115" y="1462" type="line"/>
      <point x="115" y="0" type="line"/>
      <point x="434" y="0" type="line"/>
      <point x="434" y="478" type="line" smooth="yes"/>
      <point x="434" y="559"/>
      <point x="425" y="720"/>
      <point x="407" y="962" type="curve"/>
      <point x="425" y="962" type="line"/>
      <point x="930" y="0" type="line"/>
      <point x="930" y="8" type="line"/>
      <point x="913" y="-77"/>
      <point x="849" y="-141"/>
      <point x="739" y="-141" type="curve" smooth="yes"/>
      <point x="699" y="-141"/>
      <point x="654" y="-134"/>
      <point x="601" y="-121" type="curve"/>
      <point x="601" y="-420" type="line"/>
      <point x="646" y="-437"/>
      <point x="711" y="-445"/>
    </contour>
  </outline>
</glyph>
<glyph name="OE" format="1">
  <advance width="1537"/>
  <unicode hex="0152"/>
  <note>
    OE
  </note>
  <outline>
    <contour>
      <point x="632" y="-26" type="curve" smooth="yes"/>
      <point x="684" y="-26"/>
      <point x="727" y="-18"/>
      <point x="782" y="0" type="curve"/>
      <point x="1456" y="0" type="line"/>
      <point x="1456" y="300" type="line"/>
      <point x="1095" y="300" type="line"/>
      <point x="1095" y="610" type="line"/>
      <point x="1426" y="610" type="line"/>
      <point x="1426" y="907" type="line"/>
      <point x="1095" y="907" type="line"/>
      <point x="1095" y="1166" type="line"/>
      <point x="1456" y="1166" type="line"/>
      <point x="1456" y="1462" type="line"/>
      <point x="797" y="1462" type="line"/>
      <point x="739" y="1483"/>
      <point x="690" y="1493"/>
      <point x="631" y="1493" type="curve" smooth="yes"/>
      <point x="263" y="1493"/>
      <point x="73" y="1218"/>
      <point x="73" y="739" type="curve" smooth="yes"/>
      <point x="73" y="250"/>
      <point x="265" y="-26"/>
    </contour>
    <contour>
      <point x="620" y="278" type="curve" smooth="yes"/>
      <point x="496" y="278"/>
      <point x="425" y="446"/>
      <point x="425" y="733" type="curve" smooth="yes"/>
      <point x="425" y="1021"/>
      <point x="495" y="1189"/>
      <point x="623" y="1189" type="curve" smooth="yes"/>
      <point x="659" y="1189"/>
      <point x="704" y="1183"/>
      <point x="748" y="1170" type="curve"/>
      <point x="748" y="299" type="line"/>
      <point x="711" y="286"/>
      <point x="664" y="278"/>
    </contour>
    <contour>
      <point x="769" y="0" type="move" name="bottom"/>
    </contour>
    <contour>
      <point x="769" y="1462" type="move" name="top"/>
    </contour>
  </outline>
</glyph>
<glyph name="tbar" format="1">
  <advance width="757"/>
  <unicode hex="0167"/>
  <note>
    tbar
  </note>
  <outline>
    <contour>
      <point x="477" y="-20" type="curve" smooth="yes"/>
      <point x="580" y="-20"/>
      <point x="657" y="-1"/>
      <point x="706" y="36" type="curve"/>
      <point x="706" y="299" type="line"/>
      <point x="654" y="275"/>
      <point x="607" y="263"/>
      <point x="567" y="263" type="curve" smooth="yes"/>
      <point x="515" y="263"/>
      <point x="485" y="298"/>
      <point x="485" y="342" type="curve" smooth="yes"/>
      <point x="485" y="473" type="line"/>
      <point x="671" y="473" type="line"/>
      <point x="671" y="705" type="line"/>
      <point x="485" y="705" type="line"/>
      <point x="485" y="861" type="line"/>
      <point x="699" y="861" type="line"/>
      <point x="699" y="1127" type="line"/>
      <point x="485" y="1127" type="line"/>
      <point x="485" y="1359" type="line"/>
      <point x="270" y="1359" type="line"/>
      <point x="186" y="1132" type="line"/>
      <point x="28" y="1007" type="line"/>
      <point x="28" y="861" type="line"/>
      <point x="141" y="861" type="line"/>
      <point x="141" y="705" type="line"/>
      <point x="28" y="705" type="line"/>
      <point x="28" y="473" type="line"/>
      <point x="141" y="473" type="line"/>
      <point x="141" y="367" type="line" smooth="yes"/>
      <point x="141" y="109"/>
      <point x="248" y="-20"/>
    </contour>
  </outline>
</glyph>
<glyph name="longs" format="1">
  <advance width="638"/>
  <unicode hex="017F"/>
  <note>
    longs
  </note>
  <outline>
    <contour>
      <point x="99" y="0" type="line"/>
      <point x="439" y="0" type="line"/>
      <point x="439" y="1208" type="line" smooth="yes"/>
      <point x="439" y="1249"/>
      <point x="446" y="1265"/>
      <point x="457" y="1282" type="curve" smooth="yes"/>
      <point x="464" y="1293"/>
      <point x="481" y="1299"/>
      <point x="493" y="1299" type="curve" smooth="yes"/>
      <point x="547" y="1299"/>
      <point x="578" y="1282"/>
      <point x="616" y="1261" type="curve"/>
      <point x="702" y="1513" type="line"/>
      <point x="631" y="1548"/>
      <point x="554" y="1567"/>
      <point x="470" y="1567" type="curve" smooth="yes"/>
      <point x="218" y="1567"/>
      <point x="99" y="1440"/>
      <point x="99" y="1210" type="curve" smooth="yes"/>
    </contour>
    <contour>
      <point x="319" y="0" type="move" name="bottom"/>
    </contour>
    <contour>
      <point x="319" y="1127" type="move" name="top"/>
    </contour>
  </outline>
</glyph>
<glyph name="jdotless" format="1">
  <advance width="549"/>
  <unicode hex="0237"/>
  <note>
    uni0237
  </note>
  <outline>
    <contour>
      <point x="88" y="-492" type="curve" smooth="yes"/>
      <point x="314" y="-492"/>
      <point x="450" y="-345"/>
      <point x="450" y="-99" type="curve" smooth="yes"/>
      <point x="450" y="1127" type="line"/>
      <point x="111" y="1127" type="line"/>
      <point x="111" y="-42" type="line" smooth="yes"/>
      <point x="111" y="-97"/>
      <point x="102" y="-140"/>
      <point x="83" y="-168" type="curve" smooth="yes"/>
      <point x="66" y="-193"/>
      <point x="43" y="-206"/>
      <point x="13" y="-206" type="curve" smooth="yes"/>
      <point x="-16" y="-206"/>
      <point x="-47" y="-198"/>
      <point x="-83" y="-186" type="curve"/>
      <point x="-83" y="-463" type="line"/>
      <point x="-37" y="-483"/>
      <point x="19" y="-492"/>
    </contour>
    <contour>
      <point x="274" y="0" type="move" name="bottom"/>
    </contour>
    <contour>
      <point x="274" y="1127" type="move" name="top"/>
    </contour>
  </outline>
</glyph>
<glyph name="hungarumlaut" format="1">
  <advance width="1144"/>
  <unicode hex="02DD"/>
  <note>
    hungarumlaut
  </note>
  <outline>
    <component base="hungarumlautcomb" xOffset="-162"/>
    <contour>
      <point x="469.56" y="1127" type="move" name="_top"/>
    </contour>
  </outline>
</glyph>
<glyph name="lowringmod" format="1">
  <advance width="658"/>
  <unicode hex="02F3"/>
  <note>
    uni02F3
  </note>
  <outline>
    <contour>
      <point x="323" y="-629" type="curve" smooth="yes"/>
      <point x="482" y="-629"/>
      <point x="594" y="-527"/>
      <point x="594" y="-374" type="curve" smooth="yes"/>
      <point x="594" y="-225"/>
      <point x="481" y="-121"/>
      <point x="323" y="-121" type="curve" smooth="yes"/>
      <point x="166" y="-121"/>
      <point x="62" y="-219"/>
      <point x="62" y="-374" type="curve" smooth="yes"/>
      <point x="62" y="-531"/>
      <point x="166" y="-629"/>
    </contour>
    <contour>
      <point x="323" y="-466" type="curve" smooth="yes"/>
      <point x="263" y="-466"/>
      <point x="234" y="-439"/>
      <point x="234" y="-374" type="curve" smooth="yes"/>
      <point x="234" y="-317"/>
      <point x="270" y="-282"/>
      <point x="323" y="-282" type="curve" smooth="yes"/>
      <point x="370" y="-282"/>
      <point x="414" y="-317"/>
      <point x="414" y="-374" type="curve" smooth="yes"/>
      <point x="414" y="-435"/>
      <point x="374" y="-466"/>
    </contour>
    <contour>
      <point x="323" y="-1" type="move" name="_bottom"/>
    </contour>
  </outline>
</glyph>
<glyph name="gravecomb" format="1">
  <advance width="0"/>
  <unicode hex="0300"/>
  <note>
    gravecomb
  </note>
  <outline>
    <contour>
      <point x="-800" y="1241" type="curve"/>
      <point x="-553" y="1241" type="line"/>
      <point x="-553" y="1271" type="line"/>
      <point x="-595" y="1330"/>
      <point x="-681" y="1493"/>
      <point x="-716" y="1569" type="curve"/>
      <point x="-1118" y="1569" type="line"/>
      <point x="-1118" y="1545" type="line"/>
      <point x="-1087" y="1496"/>
      <point x="-902" y="1324"/>
    </contour>
    <contour>
      <point x="-835" y="1127" type="move" name="_top"/>
    </contour>
    <contour>
      <point x="-835" y="1569" type="move" name="top"/>
    </contour>
  </outline>
</glyph>
<glyph name="acutecomb" format="1">
  <advance width="0"/>
  <unicode hex="0301"/>
  <note>
    acutecomb
  </note>
  <outline>
    <contour>
      <point x="-282" y="1241" type="line"/>
      <point x="-35" y="1241" type="line"/>
      <point x="93" y="1344"/>
      <point x="259" y="1504"/>
      <point x="282" y="1545" type="curve"/>
      <point x="282" y="1569" type="line"/>
      <point x="-119" y="1569" type="line"/>
      <point x="-143" y="1513"/>
      <point x="-238" y="1326"/>
      <point x="-282" y="1271" type="curve"/>
    </contour>
    <contour>
      <point x="-69" y="1158" type="move" name="_top"/>
    </contour>
    <contour>
      <point x="0" y="1569" type="move" name="top"/>
    </contour>
  </outline>
</glyph>
<glyph name="circumflexcomb" format="1">
  <advance width="1510"/>
  <unicode hex="0302"/>
  <note>
    circumflex
  </note>
  <outline>
    <contour>
      <point x="347" y="1241" type="line"/>
      <point x="568" y="1241" type="line"/>
      <point x="599" y="1264"/>
      <point x="641" y="1296"/>
      <point x="673" y="1325" type="curve" smooth="yes"/>
      <point x="699" y="1349"/>
      <point x="726" y="1375"/>
      <point x="751" y="1404" type="curve"/>
      <point x="803" y="1350"/>
      <point x="817" y="1336"/>
      <point x="830" y="1326" type="curve" smooth="yes"/>
      <point x="852" y="1308"/>
      <point x="861" y="1301"/>
      <point x="940" y="1241" type="curve"/>
      <point x="1160" y="1241" type="line"/>
      <point x="1160" y="1272" type="line"/>
      <point x="1030" y="1434"/>
      <point x="962" y="1520"/>
      <point x="932" y="1569" type="curve"/>
      <point x="576" y="1569" type="line"/>
      <point x="557" y="1537"/>
      <point x="481" y="1439"/>
      <point x="347" y="1272" type="curve"/>
    </contour>
    <contour>
      <point x="755" y="1127" type="move" name="_top"/>
    </contour>
    <contour>
      <point x="755" y="1569" type="move" name="top"/>
    </contour>
  </outline>
</glyph>
<glyph name="brevecomb" format="1">
  <advance width="1530"/>
  <unicode hex="0306"/>
  <note>
    breve
  </note>
  <outline>
    <contour>
      <point x="762" y="1238" type="curve" smooth="yes"/>
      <point x="967" y="1238"/>
      <point x="1094" y="1369"/>
      <point x="1113" y="1605" type="curve"/>
      <point x="914" y="1605" type="line"/>
      <point x="901" y="1518"/>
      <point x="875" y="1490"/>
      <point x="764" y="1490" type="curve" smooth="yes"/>
      <point x="641" y="1490"/>
      <point x="623" y="1511"/>
      <point x="614" y="1605" type="curve"/>
      <point x="414" y="1605" type="line"/>
      <point x="421" y="1376"/>
      <point x="539" y="1238"/>
    </contour>
    <contour>
      <point x="764" y="1127" type="move" name="_top"/>
    </contour>
    <contour>
      <point x="764" y="1605" type="move" name="top"/>
    </contour>
  </outline>
</glyph>
<glyph name="dotaccentcomb" format="1">
  <advance width="815"/>
  <unicode hex="0307"/>
  <note>
    dotaccent
  </note>
  <outline>
    <contour>
      <point x="407" y="1249" type="curve" smooth="yes"/>
      <point x="530" y="1249"/>
      <point x="600" y="1301"/>
      <point x="600" y="1414" type="curve" smooth="yes"/>
      <point x="600" y="1523"/>
      <point x="537" y="1577"/>
      <point x="407" y="1577" type="curve" smooth="yes"/>
      <point x="277" y="1577"/>
      <point x="215" y="1523"/>
      <point x="215" y="1414" type="curve" smooth="yes"/>
      <point x="215" y="1301"/>
      <point x="281" y="1249"/>
    </contour>
    <contour>
      <point x="408" y="1127" type="move" name="_top"/>
    </contour>
    <contour>
      <point x="408" y="1577" type="move" name="top"/>
    </contour>
  </outline>
</glyph>
<glyph name="hookabovecomb" format="1">
  <advance width="0"/>
  <unicode hex="0309"/>
  <note>
    hookabovecomb
  </note>
  <outline>
    <contour>
      <point x="-821" y="1221" type="line"/>
      <point x="-620" y="1221" type="line"/>
      <point x="-610" y="1282" type="line"/>
      <point x="-499" y="1309"/>
      <point x="-445" y="1375"/>
      <point x="-445" y="1479" type="curve" smooth="yes"/>
      <point x="-445" y="1631"/>
      <point x="-545" y="1705"/>
      <point x="-748" y="1705" type="curve" smooth="yes"/>
      <point x="-839" y="1705"/>
      <point x="-900" y="1697"/>
      <point x="-940" y="1680" type="curve"/>
      <point x="-940" y="1488" type="line"/>
      <point x="-884" y="1505"/>
      <point x="-834" y="1513"/>
      <point x="-789" y="1513" type="curve" smooth="yes"/>
      <point x="-754" y="1513"/>
      <point x="-720" y="1496"/>
      <point x="-720" y="1456" type="curve" smooth="yes"/>
      <point x="-720" y="1413"/>
      <point x="-743" y="1386"/>
      <point x="-848" y="1362" type="curve"/>
    </contour>
    <contour>
      <point x="-693" y="1127" type="move" name="_top"/>
    </contour>
    <contour>
      <point x="-693" y="1705" type="move" name="top"/>
    </contour>
  </outline>
</glyph>
<glyph name="caroncomb" format="1">
  <advance width="1510"/>
  <unicode hex="030C"/>
  <note>
    caron
  </note>
  <outline>
    <contour>
      <point x="576" y="1241" type="curve"/>
      <point x="932" y="1241" type="line"/>
      <point x="946" y="1263"/>
      <point x="966" y="1291"/>
      <point x="993" y="1326" type="curve" smooth="yes"/>
      <point x="1032" y="1377"/>
      <point x="1086" y="1445"/>
      <point x="1160" y="1538" type="curve"/>
      <point x="1160" y="1569" type="line"/>
      <point x="940" y="1569" type="line"/>
      <point x="865" y="1509"/>
      <point x="793" y="1448"/>
      <point x="757" y="1406" type="curve"/>
      <point x="701" y="1473"/>
      <point x="632" y="1526"/>
      <point x="568" y="1569" type="curve"/>
      <point x="347" y="1569" type="line"/>
      <point x="347" y="1538" type="line"/>
      <point x="422" y="1446"/>
      <point x="479" y="1374"/>
      <point x="518" y="1323" type="curve" smooth="yes"/>
      <point x="548" y="1284"/>
      <point x="567" y="1257"/>
    </contour>
    <contour>
      <point x="755" y="1127" type="move" name="_top"/>
    </contour>
    <contour>
      <point x="755" y="1569" type="move" name="top"/>
    </contour>
  </outline>
</glyph>
<glyph name="dblgravecomb" format="1">
  <advance width="0"/>
  <unicode hex="030F"/>
  <note>
    uni030F
  </note>
  <outline>
    <contour>
      <point x="-393" y="1241" type="curve"/>
      <point x="-198" y="1241" type="line"/>
      <point x="-198" y="1271" type="line"/>
      <point x="-257" y="1352"/>
      <point x="-332" y="1483"/>
      <point x="-374" y="1569" type="curve"/>
      <point x="-728" y="1569" type="line"/>
      <point x="-728" y="1545" type="line"/>
      <point x="-697" y="1499"/>
      <point x="-508" y="1332"/>
    </contour>
    <contour>
      <point x="-837" y="1241" type="curve"/>
      <point x="-643" y="1241" type="line"/>
      <point x="-643" y="1271" type="line"/>
      <point x="-679" y="1318"/>
      <point x="-781" y="1483"/>
      <point x="-818" y="1569" type="curve"/>
      <point x="-1169" y="1569" type="line"/>
      <point x="-1169" y="1545" type="line"/>
      <point x="-1137" y="1500"/>
      <point x="-946" y="1325"/>
    </contour>
    <contour>
      <point x="-684" y="1127" type="move" name="_top"/>
    </contour>
    <contour>
      <point x="-684" y="1569" type="move" name="top"/>
    </contour>
  </outline>
</glyph>
<glyph name="commaturnedabovecomb" format="1">
  <advance width="827"/>
  <unicode hex="0312"/>
  <outline>
    <contour>
      <point x="531" y="1241" type="line"/>
      <point x="862" y="1241" type="line"/>
      <point x="871" y="1312"/>
      <point x="890" y="1436"/>
      <point x="914" y="1539" type="curve"/>
      <point x="914" y="1569" type="line"/>
      <point x="698" y="1569" type="line"/>
      <point x="630" y="1452"/>
      <point x="586" y="1374"/>
      <point x="531" y="1262" type="curve"/>
    </contour>
    <contour>
      <point x="723" y="1127" type="move" name="_top"/>
    </contour>
    <contour>
      <point x="723" y="1569" type="move" name="top"/>
    </contour>
  </outline>
</glyph>
<glyph name="dotbelowcomb" format="1">
  <advance width="0"/>
  <unicode hex="0323"/>
  <note>
    dotbelowcomb
  </note>
  <outline>
    <contour>
      <point x="-765" y="-458" type="curve" smooth="yes"/>
      <point x="-639" y="-458"/>
      <point x="-570" y="-401"/>
      <point x="-570" y="-296" type="curve" smooth="yes"/>
      <point x="-570" y="-194"/>
      <point x="-634" y="-131"/>
      <point x="-765" y="-131" type="curve" smooth="yes"/>
      <point x="-895" y="-131"/>
      <point x="-959" y="-185"/>
      <point x="-959" y="-296" type="curve" smooth="yes"/>
      <point x="-959" y="-406"/>
      <point x="-890" y="-458"/>
    </contour>
    <contour>
      <point x="-766" y="0" type="move" name="_bottom"/>
    </contour>
    <contour>
      <point x="-766" y="-458" type="move" name="bottom"/>
    </contour>
  </outline>
</glyph>
<glyph name="commaaccentcomb" format="1">
  <advance width="868"/>
  <unicode hex="0326"/>
  <outline>
    <contour>
      <point x="379" y="-453" type="line"/>
      <point x="593" y="-453" type="line"/>
      <point x="656" y="-360"/>
      <point x="710" y="-268"/>
      <point x="768" y="-145" type="curve"/>
      <point x="768" y="-125" type="line"/>
      <point x="441" y="-125" type="line"/>
      <point x="431" y="-199"/>
      <point x="403" y="-337"/>
      <point x="379" y="-423" type="curve"/>
    </contour>
    <contour>
      <point x="573" y="0" type="move" name="_bottom"/>
    </contour>
    <contour>
      <point x="573" y="-453" type="move" name="bottom"/>
    </contour>
  </outline>
</glyph>
<glyph name="cedillacomb" format="1">
  <advance width="455"/>
  <unicode hex="0327"/>
  <note>
    cedilla
  </note>
  <outline>
    <contour>
      <point x="110" y="-492" type="curve" smooth="yes"/>
      <point x="332" y="-492"/>
      <point x="425" y="-394"/>
      <point x="425" y="-246" type="curve" smooth="yes"/>
      <point x="425" y="-142"/>
      <point x="355" y="-81"/>
      <point x="271" y="-60" type="curve"/>
      <point x="303" y="0" type="line"/>
      <point x="88" y="0" type="line"/>
      <point x="5" y="-157" type="line"/>
      <point x="109" y="-174"/>
      <point x="159" y="-209"/>
      <point x="159" y="-257" type="curve" smooth="yes"/>
      <point x="159" y="-288"/>
      <point x="140" y="-300"/>
      <point x="99" y="-300" type="curve" smooth="yes"/>
      <point x="55" y="-300"/>
      <point x="8" y="-293"/>
      <point x="-41" y="-280" type="curve"/>
      <point x="-41" y="-466" type="line"/>
      <point x="6" y="-484"/>
      <point x="56" y="-492"/>
    </contour>
    <contour>
      <point x="192" y="0" type="move" name="_bottom"/>
    </contour>
    <contour>
      <point x="192" y="-492" type="move" name="bottom"/>
    </contour>
  </outline>
</glyph>
<glyph name="ogonekcomb" format="1">
  <advance width="674"/>
  <unicode hex="0328"/>
  <note>
    ogonek
  </note>
  <outline>
    <contour>
      <point x="522" y="-499" type="curve" smooth="yes"/>
      <point x="559" y="-499"/>
      <point x="605" y="-493"/>
      <point x="664" y="-481" type="curve"/>
      <point x="664" y="-272" type="line"/>
      <point x="629" y="-283"/>
      <point x="601" y="-289"/>
      <point x="574" y="-289" type="curve" smooth="yes"/>
      <point x="544" y="-289"/>
      <point x="512" y="-269"/>
      <point x="512" y="-215" type="curve" smooth="yes"/>
      <point x="512" y="-160"/>
      <point x="555" y="-84"/>
      <point x="637" y="0" type="curve"/>
      <point x="429" y="0" type="line"/>
      <point x="313" y="-91"/>
      <point x="265" y="-169"/>
      <point x="265" y="-261" type="curve" smooth="yes"/>
      <point x="265" y="-404"/>
      <point x="372" y="-499"/>
    </contour>
    <contour>
      <point x="681" y="10" type="move" name="_ogonek"/>
    </contour>
  </outline>
</glyph>
<glyph name="tonos" format="1">
  <advance width="1063"/>
  <unicode hex="0384"/>
  <note>
    tonos
  </note>
  <outline>
    <contour>
      <point x="384" y="1241" type="line"/>
      <point x="595" y="1241" type="line"/>
      <point x="679" y="1365"/>
      <point x="732" y="1444"/>
      <point x="773" y="1522" type="curve"/>
      <point x="773" y="1548" type="line"/>
      <point x="446" y="1548" type="line"/>
      <point x="425" y="1421"/>
      <point x="412" y="1361"/>
      <point x="384" y="1277" type="curve"/>
    </contour>
    <contour>
      <point x="579" y="1127" type="move" name="_top"/>
    </contour>
    <contour>
      <point x="757.58" y="1556" type="move" name="_topleft"/>
    </contour>
  </outline>
</glyph>
<glyph name="dieresistonos" format="1">
  <advance width="1147"/>
  <unicode hex="0385"/>
  <note>
    dieresistonos
  </note>
  <outline>
    <contour>
      <point x="452" y="1388" type="line"/>
      <point x="612" y="1388" type="line"/>
      <point x="719" y="1524"/>
      <point x="776" y="1597"/>
      <point x="832" y="1695" type="curve"/>
      <point x="832" y="1714" type="line"/>
      <point x="516" y="1714" type="line"/>
      <point x="498" y="1606"/>
      <point x="483" y="1529"/>
      <point x="452" y="1417" type="curve"/>
    </contour>
    <contour>
      <point x="264" y="1263" type="curve" smooth="yes"/>
      <point x="353" y="1263"/>
      <point x="416" y="1306"/>
      <point x="416" y="1410" type="curve" smooth="yes"/>
      <point x="416" y="1515"/>
      <point x="352" y="1557"/>
      <point x="264" y="1557" type="curve" smooth="yes"/>
      <point x="178" y="1557"/>
      <point x="119" y="1516"/>
      <point x="119" y="1410" type="curve" smooth="yes"/>
      <point x="119" y="1305"/>
      <point x="177" y="1263"/>
    </contour>
    <contour>
      <point x="876" y="1263" type="curve" smooth="yes"/>
      <point x="965" y="1263"/>
      <point x="1027" y="1306"/>
      <point x="1027" y="1409" type="curve" smooth="yes"/>
      <point x="1027" y="1513"/>
      <point x="965" y="1557"/>
      <point x="875" y="1557" type="curve" smooth="yes"/>
      <point x="779" y="1557"/>
      <point x="728" y="1507"/>
      <point x="728" y="1410" type="curve" smooth="yes"/>
      <point x="728" y="1306"/>
      <point x="787" y="1263"/>
    </contour>
    <contour>
      <point x="573" y="1127" type="move" name="_top"/>
    </contour>
  </outline>
</glyph>
<glyph name="Iota" format="1">
  <advance width="698"/>
  <unicode hex="0399"/>
  <note>
    Iota
  </note>
  <outline>
    <component base="I"/>
    <contour>
      <point x="50" y="1522" type="move" name="topleft"/>
    </contour>
  </outline>
</glyph>
<glyph name="Omicron" format="1">
  <advance width="1285"/>
  <unicode hex="039F"/>
  <note>
    Omicron
  </note>
  <outline>
    <component base="O"/>
    <contour>
      <point x="140" y="1522" type="move" name="topleft"/>
    </contour>
  </outline>
</glyph>
<glyph name="Upsilon" format="1">
  <advance width="1079"/>
  <unicode hex="03A5"/>
  <note>
    Upsilon
  </note>
  <outline>
    <contour>
      <point x="369" y="0" type="line"/>
      <point x="710" y="0" type="line"/>
      <point x="710" y="592" type="line"/>
      <point x="1079" y="1462" type="line"/>
      <point x="717" y="1462" type="line"/>
      <point x="539" y="961" type="line"/>
      <point x="366" y="1462" type="line"/>
      <point x="0" y="1462" type="line"/>
      <point x="369" y="578" type="line"/>
    </contour>
    <contour>
      <point x="541" y="1462" type="move" name="top"/>
    </contour>
    <contour>
      <point x="-60" y="1512" type="move" name="topleft"/>
    </contour>
  </outline>
</glyph>
<glyph name="zeta" format="1">
  <advance width="792"/>
  <unicode hex="03B6"/>
  <note>
    zeta
  </note>
  <outline>
    <contour>
      <point x="334" y="-367" type="curve"/>
      <point x="657" y="-367" type="line"/>
      <point x="747" y="-245"/>
      <point x="790" y="-121"/>
      <point x="790" y="4" type="curve" smooth="yes"/>
      <point x="790" y="46"/>
      <point x="785" y="81"/>
      <point x="772" y="118" type="curve" smooth="yes"/>
      <point x="740" y="210"/>
      <point x="704" y="230"/>
      <point x="594" y="290" type="curve" smooth="yes"/>
      <point x="523" y="329"/>
      <point x="492" y="353"/>
      <point x="479" y="364" type="curve" smooth="yes"/>
      <point x="433" y="403"/>
      <point x="411" y="454"/>
      <point x="411" y="535" type="curve" smooth="yes"/>
      <point x="411" y="609"/>
      <point x="429" y="717"/>
      <point x="462" y="813" type="curve" smooth="yes"/>
      <point x="519" y="979"/>
      <point x="636" y="1157"/>
      <point x="776" y="1341" type="curve"/>
      <point x="776" y="1556" type="line"/>
      <point x="96" y="1556" type="line"/>
      <point x="96" y="1296" type="line"/>
      <point x="288" y="1296" type="line" smooth="yes"/>
      <point x="379" y="1296"/>
      <point x="433" y="1302"/>
      <point x="454" y="1313" type="curve"/>
      <point x="343" y="1184"/>
      <point x="254" y="1071"/>
      <point x="214" y="1012" type="curve" smooth="yes"/>
      <point x="185" y="969"/>
      <point x="158" y="919"/>
      <point x="134" y="863" type="curve" smooth="yes"/>
      <point x="92" y="762"/>
      <point x="64" y="643"/>
      <point x="64" y="517" type="curve" smooth="yes"/>
      <point x="64" y="408"/>
      <point x="85" y="308"/>
      <point x="132" y="235" type="curve" smooth="yes"/>
      <point x="170" y="176"/>
      <point x="231" y="126"/>
      <point x="307" y="84" type="curve" smooth="yes"/>
      <point x="316" y="79" type="line"/>
      <point x="344" y="64"/>
      <point x="372" y="48"/>
      <point x="400" y="33" type="curve" smooth="yes"/>
      <point x="450" y="5"/>
      <point x="463" y="-23"/>
      <point x="463" y="-58" type="curve" smooth="yes"/>
      <point x="463" y="-119"/>
      <point x="425" y="-217"/>
    </contour>
  </outline>
</glyph>
<glyph name="iota" format="1">
  <advance width="646"/>
  <unicode hex="03B9"/>
  <note>
    iota
  </note>
  <outline>
    <contour>
      <point x="434" y="-20" type="curve" smooth="yes"/>
      <point x="503" y="-20"/>
      <point x="565" y="-9"/>
      <point x="618" y="15" type="curve"/>
      <point x="618" y="281" type="line"/>
      <point x="569" y="267"/>
      <point x="546" y="263"/>
      <point x="521" y="263" type="curve" smooth="yes"/>
      <point x="477" y="263"/>
      <point x="439" y="308"/>
      <point x="439" y="385" type="curve" smooth="yes"/>
      <point x="439" y="1127" type="line"/>
      <point x="96" y="1127" type="line"/>
      <point x="96" y="374" type="line" smooth="yes"/>
      <point x="96" y="99"/>
      <point x="201" y="-20"/>
    </contour>
    <contour>
      <point x="323" y="1127" type="move" name="top"/>
    </contour>
  </outline>
</glyph>
<glyph name="lambda" format="1">
  <advance width="1164"/>
  <unicode hex="03BB"/>
  <note>
    lambda
  </note>
  <outline>
    <contour>
      <point x="974" y="-20" type="curve" smooth="yes"/>
      <point x="1036" y="-20"/>
      <point x="1094" y="-7"/>
      <point x="1145" y="18" type="curve"/>
      <point x="1145" y="288" type="line"/>
      <point x="1128" y="281"/>
      <point x="1107" y="278"/>
      <point x="1087" y="278" type="curve" smooth="yes"/>
      <point x="1062" y="278"/>
      <point x="1046" y="283"/>
      <point x="1036" y="288" type="curve" smooth="yes"/>
      <point x="1005" y="304"/>
      <point x="980" y="356"/>
      <point x="944" y="470" type="curve" smooth="yes"/>
      <point x="728" y="1159" type="line" smooth="yes"/>
      <point x="674" y="1333"/>
      <point x="607" y="1441"/>
      <point x="522" y="1503" type="curve" smooth="yes"/>
      <point x="450" y="1556"/>
      <point x="365" y="1576"/>
      <point x="263" y="1576" type="curve" smooth="yes"/>
      <point x="203" y="1576"/>
      <point x="162" y="1569"/>
      <point x="98" y="1556" type="curve"/>
      <point x="98" y="1262" type="line"/>
      <point x="127" y="1270"/>
      <point x="162" y="1275"/>
      <point x="188" y="1275" type="curve" smooth="yes"/>
      <point x="246" y="1275"/>
      <point x="302" y="1249"/>
      <point x="342" y="1216" type="curve" smooth="yes"/>
      <point x="380" y="1184"/>
      <point x="404" y="1147"/>
      <point x="404" y="1121" type="curve"/>
      <point x="401" y="1107" type="line"/>
      <point x="3" y="0" type="line"/>
      <point x="342" y="0" type="line"/>
      <point x="494" y="446" type="line"/>
      <point x="509" y="492"/>
      <point x="527" y="576"/>
      <point x="552" y="756" type="curve"/>
      <point x="563" y="756" type="line"/>
      <point x="568" y="644"/>
      <point x="589" y="527"/>
      <point x="599" y="492" type="curve" smooth="yes"/>
      <point x="662" y="272" type="line" smooth="yes"/>
      <point x="718" y="76"/>
      <point x="806" y="-20"/>
    </contour>
  </outline>
</glyph>
<glyph name="omicron" format="1">
  <advance width="1082"/>
  <unicode hex="03BF"/>
  <note>
    omicron
  </note>
  <outline>
    <contour>
      <point x="543" y="-20" type="curve" smooth="yes"/>
      <point x="831" y="-20"/>
      <point x="1015" y="205"/>
      <point x="1015" y="561" type="curve" smooth="yes"/>
      <point x="1015" y="916"/>
      <point x="832" y="1148"/>
      <point x="541" y="1148" type="curve" smooth="yes"/>
      <point x="245" y="1148"/>
      <point x="65" y="909"/>
      <point x="65" y="573" type="curve" smooth="yes"/>
      <point x="65" y="374"/>
      <point x="128" y="188"/>
      <point x="257" y="79" type="curve" smooth="yes"/>
      <point x="331" y="17"/>
      <point x="426" y="-20"/>
    </contour>
    <contour>
      <point x="540" y="265" type="curve" smooth="yes"/>
      <point x="420" y="265"/>
      <point x="412" y="417"/>
      <point x="412" y="552" type="curve" smooth="yes"/>
      <point x="412" y="717"/>
      <point x="427" y="860"/>
      <point x="541" y="860" type="curve" smooth="yes"/>
      <point x="656" y="860"/>
      <point x="670" y="729"/>
      <point x="670" y="562" type="curve" smooth="yes"/>
      <point x="670" y="418"/>
      <point x="646" y="265"/>
    </contour>
    <contour>
      <point x="540" y="1127" type="move" name="top"/>
    </contour>
  </outline>
</glyph>
<glyph name="rho" format="1">
  <advance width="1072"/>
  <unicode hex="03C1"/>
  <note>
    rho
  </note>
  <outline>
    <contour>
      <point x="100" y="-492" type="line"/>
      <point x="443" y="-492" type="line"/>
      <point x="443" y="-215" type="line" smooth="yes"/>
      <point x="443" y="-145"/>
      <point x="438" y="-74"/>
      <point x="428" y="53" type="curve"/>
      <point x="444" y="53" type="line"/>
      <point x="492" y="15"/>
      <point x="540" y="-20"/>
      <point x="636" y="-20" type="curve" smooth="yes"/>
      <point x="865" y="-20"/>
      <point x="1007" y="179"/>
      <point x="1007" y="572" type="curve" smooth="yes"/>
      <point x="1007" y="957"/>
      <point x="871" y="1148"/>
      <point x="560" y="1148" type="curve" smooth="yes"/>
      <point x="254" y="1148"/>
      <point x="100" y="962"/>
      <point x="100" y="588" type="curve" smooth="yes"/>
    </contour>
    <contour>
      <point x="545" y="270" type="curve" smooth="yes"/>
      <point x="510" y="270"/>
      <point x="472" y="287"/>
      <point x="443" y="326" type="curve"/>
      <point x="443" y="596" type="line" smooth="yes"/>
      <point x="443" y="685"/>
      <point x="451" y="753"/>
      <point x="465" y="792" type="curve" smooth="yes"/>
      <point x="482" y="840"/>
      <point x="512" y="863"/>
      <point x="553" y="863" type="curve" smooth="yes"/>
      <point x="592" y="863"/>
      <point x="633" y="842"/>
      <point x="647" y="768" type="curve" smooth="yes"/>
      <point x="655" y="726"/>
      <point x="658" y="645"/>
      <point x="658" y="560" type="curve" smooth="yes"/>
      <point x="658" y="474"/>
      <point x="655" y="404"/>
      <point x="643" y="358" type="curve" smooth="yes"/>
      <point x="628" y="302"/>
      <point x="593" y="270"/>
    </contour>
  </outline>
</glyph>
<glyph name="upsilon" format="1">
  <advance width="1119"/>
  <unicode hex="03C5"/>
  <note>
    upsilon
  </note>
  <outline>
    <contour>
      <point x="544" y="-17" type="curve" smooth="yes"/>
      <point x="876" y="-17"/>
      <point x="1039" y="205"/>
      <point x="1039" y="614" type="curve" smooth="yes"/>
      <point x="1039" y="807"/>
      <point x="1018" y="935"/>
      <point x="975" y="1127" type="curve"/>
      <point x="637" y="1127" type="line"/>
      <point x="680" y="916"/>
      <point x="698" y="768"/>
      <point x="698" y="630" type="curve" smooth="yes"/>
      <point x="698" y="544"/>
      <point x="691" y="438"/>
      <point x="679" y="382" type="curve" smooth="yes"/>
      <point x="662" y="303"/>
      <point x="624" y="267"/>
      <point x="552" y="267" type="curve" smooth="yes"/>
      <point x="446" y="267"/>
      <point x="429" y="376"/>
      <point x="429" y="506" type="curve" smooth="yes"/>
      <point x="429" y="1127" type="line"/>
      <point x="86" y="1127" type="line"/>
      <point x="86" y="505" type="line" smooth="yes"/>
      <point x="86" y="383"/>
      <point x="104" y="283"/>
      <point x="144" y="202" type="curve" smooth="yes"/>
      <point x="212" y="64"/>
      <point x="343" y="-17"/>
    </contour>
    <contour>
      <point x="560" y="1127" type="move" name="top"/>
    </contour>
  </outline>
</glyph>
<glyph name="phi" format="1">
  <advance width="1449"/>
  <unicode hex="03C6"/>
  <note>
    phi
  </note>
  <outline>
    <contour>
      <point x="571" y="-492" type="line"/>
      <point x="882" y="-492" type="line"/>
      <point x="882" y="-20" type="line"/>
      <point x="1072" y="-10"/>
      <point x="1209" y="58"/>
      <point x="1291" y="188" type="curve" smooth="yes"/>
      <point x="1354" y="286"/>
      <point x="1385" y="421"/>
      <point x="1385" y="593" type="curve" smooth="yes"/>
      <point x="1385" y="960"/>
      <point x="1242" y="1139"/>
      <point x="964" y="1139" type="curve" smooth="yes"/>
      <point x="710" y="1139"/>
      <point x="571" y="990"/>
      <point x="571" y="711" type="curve" smooth="yes"/>
      <point x="571" y="240" type="line"/>
      <point x="467" y="258"/>
      <point x="394" y="342"/>
      <point x="394" y="564" type="curve" smooth="yes"/>
      <point x="394" y="689"/>
      <point x="417" y="796"/>
      <point x="516" y="1006" type="curve"/>
      <point x="242" y="1144" type="line"/>
      <point x="123" y="962"/>
      <point x="64" y="765"/>
      <point x="64" y="558" type="curve" smooth="yes"/>
      <point x="64" y="192"/>
      <point x="249" y="-2"/>
      <point x="571" y="-20" type="curve"/>
    </contour>
    <contour>
      <point x="882" y="240" type="curve"/>
      <point x="882" y="725" type="line" smooth="yes"/>
      <point x="882" y="835"/>
      <point x="917" y="885"/>
      <point x="965" y="885" type="curve" smooth="yes"/>
      <point x="1009" y="885"/>
      <point x="1039" y="844"/>
      <point x="1049" y="778" type="curve" smooth="yes"/>
      <point x="1056" y="734"/>
      <point x="1056" y="629"/>
      <point x="1056" y="590" type="curve" smooth="yes"/>
      <point x="1056" y="488"/>
      <point x="1049" y="438"/>
      <point x="1028" y="379" type="curve" smooth="yes"/>
      <point x="998" y="296"/>
      <point x="957" y="252"/>
    </contour>
  </outline>
</glyph>
<glyph name="psi" format="1">
  <advance width="1515"/>
  <unicode hex="03C8"/>
  <note>
    psi
  </note>
  <outline>
    <contour>
      <point x="605" y="-492" type="line"/>
      <point x="915" y="-492" type="line"/>
      <point x="915" y="-17" type="line"/>
      <point x="1263" y="-17"/>
      <point x="1441" y="176"/>
      <point x="1441" y="615" type="curve" smooth="yes"/>
      <point x="1441" y="759"/>
      <point x="1420" y="930"/>
      <point x="1377" y="1127" type="curve"/>
      <point x="1053" y="1127" type="line"/>
      <point x="1093" y="937"/>
      <point x="1114" y="767"/>
      <point x="1114" y="625" type="curve" smooth="yes"/>
      <point x="1114" y="485"/>
      <point x="1097" y="387"/>
      <point x="1060" y="326" type="curve" smooth="yes"/>
      <point x="1021" y="262"/>
      <point x="976" y="240"/>
      <point x="915" y="240" type="curve"/>
      <point x="915" y="1556" type="line"/>
      <point x="605" y="1556" type="line"/>
      <point x="605" y="240" type="line"/>
      <point x="487" y="240"/>
      <point x="417" y="317"/>
      <point x="417" y="473" type="curve" smooth="yes"/>
      <point x="417" y="1127" type="line"/>
      <point x="88" y="1127" type="line"/>
      <point x="88" y="483" type="line" smooth="yes"/>
      <point x="88" y="139"/>
      <point x="266" y="-17"/>
      <point x="605" y="-17" type="curve"/>
    </contour>
  </outline>
</glyph>
<glyph name="Ge-cy" format="1">
  <advance width="876"/>
  <unicode hex="0413"/>
  <note>
    afii10020
  </note>
  <outline>
    <contour>
      <point x="115" y="0" type="line"/>
      <point x="460" y="0" type="line"/>
      <point x="460" y="1166" type="line"/>
      <point x="830" y="1166" type="line"/>
      <point x="830" y="1462" type="line"/>
      <point x="115" y="1462" type="line"/>
    </contour>
    <contour>
      <point x="856" y="0" type="move" name="bottomright"/>
    </contour>
    <contour>
      <point x="485" y="1462" type="move" name="top"/>
    </contour>
  </outline>
</glyph>
<glyph name="Zhe-cy" format="1">
  <advance width="1651"/>
  <unicode hex="0416"/>
  <note>
    afii10024
  </note>
  <outline>
    <contour>
      <point x="374" y="0" type="line"/>
      <point x="664" y="737" type="line"/>
      <point x="664" y="0" type="line"/>
      <point x="985" y="0" type="line"/>
      <point x="985" y="737" type="line"/>
      <point x="1278" y="0" type="line"/>
      <point x="1651" y="0" type="line"/>
      <point x="1307" y="763" type="line"/>
      <point x="1648" y="1462" type="line"/>
      <point x="1292" y="1462" type="line"/>
      <point x="985" y="753" type="line"/>
      <point x="985" y="1462" type="line"/>
      <point x="664" y="1462" type="line"/>
      <point x="664" y="753" type="line"/>
      <point x="356" y="1462" type="line"/>
      <point x="3" y="1462" type="line"/>
      <point x="345" y="759" type="line"/>
      <point x="0" y="0" type="line"/>
    </contour>
    <contour>
      <point x="1631" y="0" type="move" name="bottomright"/>
    </contour>
    <contour>
      <point x="827" y="1462" type="move" name="top"/>
    </contour>
  </outline>
</glyph>
<glyph name="Che-cy" format="1">
  <advance width="1221"/>
  <unicode hex="0427"/>
  <note>
    afii10041
  </note>
  <outline>
    <contour>
      <point x="759" y="0" type="line"/>
      <point x="1105" y="0" type="line"/>
      <point x="1105" y="1462" type="line"/>
      <point x="759" y="1462" type="line"/>
      <point x="759" y="832" type="line"/>
      <point x="708" y="797"/>
      <point x="645" y="762"/>
      <point x="575" y="762" type="curve" smooth="yes"/>
      <point x="496" y="762"/>
      <point x="467" y="811"/>
      <point x="467" y="933" type="curve" smooth="yes"/>
      <point x="467" y="1462" type="line"/>
      <point x="120" y="1462" type="line"/>
      <point x="120" y="846" type="line" smooth="yes"/>
      <point x="120" y="608"/>
      <point x="260" y="459"/>
      <point x="491" y="459" type="curve" smooth="yes"/>
      <point x="584" y="459"/>
      <point x="674" y="487"/>
      <point x="759" y="542" type="curve"/>
    </contour>
    <contour>
      <point x="1201" y="0" type="move" name="bottomright"/>
    </contour>
    <contour>
      <point x="611" y="1462" type="move" name="top"/>
    </contour>
  </outline>
</glyph>
<glyph name="ge-cy" format="1">
  <advance width="787"/>
  <unicode hex="0433"/>
  <note>
    afii10068
  </note>
  <outline>
    <contour>
      <point x="99" y="0" type="line"/>
      <point x="439" y="0" type="line"/>
      <point x="439" y="858" type="line"/>
      <point x="743" y="858" type="line"/>
      <point x="743" y="1127" type="line"/>
      <point x="99" y="1127" type="line"/>
    </contour>
    <contour>
      <point x="767" y="0" type="move" name="bottomright"/>
    </contour>
    <contour>
      <point x="417" y="1127" type="move" name="top"/>
    </contour>
  </outline>
</glyph>
<glyph name="ie-cy" format="1">
  <advance width="1002"/>
  <unicode hex="0435"/>
  <note>
    afii10070
  </note>
  <outline>
    <component base="e"/>
    <contour>
      <point x="500" y="1127" type="move" name="top"/>
    </contour>
  </outline>
</glyph>
<glyph name="el-cy" format="1">
  <advance width="1142"/>
  <unicode hex="043B"/>
  <note>
    afii10077
  </note>
  <outline>
    <contour>
      <point x="153" y="-22" type="curve" smooth="yes"/>
      <point x="347" y="-22"/>
      <point x="462" y="101"/>
      <point x="532" y="424" type="curve" smooth="yes"/>
      <point x="559" y="549"/>
      <point x="576" y="685"/>
      <point x="590" y="858" type="curve"/>
      <point x="702" y="858" type="line"/>
      <point x="702" y="0" type="line"/>
      <point x="1044" y="0" type="line"/>
      <point x="1044" y="1127" type="line"/>
      <point x="286" y="1127" type="line"/>
      <point x="280" y="1038"/>
      <point x="253" y="768"/>
      <point x="244" y="680" type="curve" smooth="yes"/>
      <point x="239" y="632"/>
      <point x="224" y="542"/>
      <point x="222" y="534" type="curve" smooth="yes"/>
      <point x="190" y="367"/>
      <point x="143" y="270"/>
      <point x="72" y="270" type="curve" smooth="yes"/>
      <point x="59" y="270"/>
      <point x="28" y="273"/>
      <point x="5" y="281" type="curve"/>
      <point x="5" y="7" type="line"/>
      <point x="43" y="-14"/>
      <point x="104" y="-22"/>
    </contour>
  </outline>
</glyph>
<glyph name="em-cy" format="1">
  <advance width="1506"/>
  <unicode hex="043C"/>
  <note>
    afii10078
  </note>
  <outline>
    <contour>
      <point x="99" y="0" type="line"/>
      <point x="393" y="0" type="line"/>
      <point x="393" y="617" type="line" smooth="yes"/>
      <point x="393" y="730.713"/>
      <point x="394.826" y="817.946"/>
      <point x="397.606" y="882.188" type="curve"/>
      <point x="423.075" y="742.809"/>
      <point x="448.721" y="619.323"/>
      <point x="483" y="492" type="curve" smooth="yes"/>
      <point x="528" y="328"/>
      <point x="572" y="164"/>
      <point x="617" y="0" type="curve"/>
      <point x="889" y="0" type="line"/>
      <point x="934" y="164"/>
      <point x="978" y="328"/>
      <point x="1023" y="492" type="curve" smooth="yes"/>
      <point x="1057.279" y="619.323"/>
      <point x="1082.925" y="742.809"/>
      <point x="1108.394" y="882.188" type="curve"/>
      <point x="1111.174" y="817.946"/>
      <point x="1113" y="730.713"/>
      <point x="1113" y="617" type="curve" smooth="yes"/>
      <point x="1113" y="0" type="line"/>
      <point x="1407" y="0" type="line"/>
      <point x="1407" y="1127" type="line"/>
      <point x="919" y="1127" type="line"/>
      <point x="806" y="688" type="line" smooth="yes"/>
      <point x="783" y="600"/>
      <point x="758" y="451"/>
      <point x="753" y="340" type="curve"/>
      <point x="748" y="451"/>
      <point x="723" y="600"/>
      <point x="700" y="688" type="curve" smooth="yes"/>
      <point x="587" y="1127" type="line"/>
      <point x="99" y="1127" type="line"/>
    </contour>
  </outline>
</glyph>
<glyph name="en-cy" format="1">
  <advance width="1134"/>
  <unicode hex="043D"/>
  <note>
    afii10079
  </note>
  <outline>
    <contour>
      <point x="99" y="0" type="line"/>
      <point x="439" y="0" type="line"/>
      <point x="439" y="443" type="line"/>
      <point x="696" y="443" type="line"/>
      <point x="696" y="0" type="line"/>
      <point x="1039" y="0" type="line"/>
      <point x="1039" y="1127" type="line"/>
      <point x="696" y="1127" type="line"/>
      <point x="696" y="710" type="line"/>
      <point x="439" y="710" type="line"/>
      <point x="439" y="1127" type="line"/>
      <point x="99" y="1127" type="line"/>
    </contour>
    <contour>
      <point x="1114" y="0" type="move" name="bottomright"/>
    </contour>
  </outline>
</glyph>
<glyph name="te-cy" format="1">
  <advance width="975"/>
  <unicode hex="0442"/>
  <note>
    afii10084
  </note>
  <outline>
    <contour>
      <point x="318" y="0" type="line"/>
      <point x="657" y="0" type="line"/>
      <point x="657" y="856" type="line"/>
      <point x="928" y="856" type="line"/>
      <point x="928" y="1127" type="line"/>
      <point x="46" y="1127" type="line"/>
      <point x="46" y="856" type="line"/>
      <point x="318" y="856" type="line"/>
    </contour>
    <contour>
      <point x="955" y="0" type="move" name="bottomright"/>
    </contour>
  </outline>
</glyph>
<glyph name="ha-cy" format="1">
  <advance width="980"/>
  <unicode hex="0445"/>
  <note>
    afii10087
  </note>
  <outline>
    <component base="x"/>
    <contour>
      <point x="960" y="0" type="move" name="bottomright"/>
    </contour>
  </outline>
</glyph>
<glyph name="iu-cy" format="1">
  <advance width="1566"/>
  <unicode hex="044E"/>
  <note>
    afii10096
  </note>
  <outline>
    <contour>
      <point x="1040" y="-20" type="curve" smooth="yes"/>
      <point x="1331" y="-20"/>
      <point x="1501" y="196"/>
      <point x="1501" y="565" type="curve" smooth="yes"/>
      <point x="1501" y="936"/>
      <point x="1330" y="1148"/>
      <point x="1043" y="1148" type="curve" smooth="yes"/>
      <point x="788" y="1148"/>
      <point x="622" y="982"/>
      <point x="586" y="710" type="curve"/>
      <point x="439" y="710" type="line"/>
      <point x="439" y="1127" type="line"/>
      <point x="99" y="1127" type="line"/>
      <point x="99" y="0" type="line"/>
      <point x="439" y="0" type="line"/>
      <point x="439" y="443" type="line"/>
      <point x="582" y="443" type="line"/>
      <point x="616" y="136"/>
      <point x="792" y="-20"/>
    </contour>
    <contour>
      <point x="1041" y="268" type="curve" smooth="yes"/>
      <point x="962" y="268"/>
      <point x="924" y="361"/>
      <point x="924" y="565" type="curve" smooth="yes"/>
      <point x="924" y="659"/>
      <point x="932" y="739"/>
      <point x="951" y="788" type="curve" smooth="yes"/>
      <point x="968" y="832"/>
      <point x="998" y="860"/>
      <point x="1040" y="860" type="curve" smooth="yes"/>
      <point x="1077" y="860"/>
      <point x="1115" y="838"/>
      <point x="1134" y="773" type="curve" smooth="yes"/>
      <point x="1149" y="722"/>
      <point x="1154" y="639"/>
      <point x="1154" y="566" type="curve" smooth="yes"/>
      <point x="1154" y="487"/>
      <point x="1148" y="406"/>
      <point x="1137" y="362" type="curve" smooth="yes"/>
      <point x="1123" y="305"/>
      <point x="1091" y="268"/>
    </contour>
    <contour>
      <point x="782" y="1127" type="move" name="top"/>
    </contour>
  </outline>
</glyph>
<glyph name="dzhe-cy" format="1">
  <advance width="1134"/>
  <unicode hex="045F"/>
  <note>
    afii10193
  </note>
  <outline>
    <contour>
      <point x="400" y="-410" type="line"/>
      <point x="737" y="-410" type="line"/>
      <point x="737" y="0" type="line"/>
      <point x="1035" y="0" type="line"/>
      <point x="1035" y="1127" type="line"/>
      <point x="693" y="1127" type="line"/>
      <point x="693" y="268" type="line"/>
      <point x="439" y="268" type="line"/>
      <point x="439" y="1127" type="line"/>
      <point x="99" y="1127" type="line"/>
      <point x="99" y="0" type="line"/>
      <point x="400" y="0" type="line"/>
    </contour>
  </outline>
</glyph>
<glyph name="Omega-cy" format="1">
  <advance width="1837"/>
  <unicode hex="0460"/>
  <note>
    uni0460
  </note>
  <outline>
    <contour>
      <point x="614" y="-20" type="curve" smooth="yes"/>
      <point x="745" y="-20"/>
      <point x="833" y="20"/>
      <point x="910" y="108" type="curve"/>
      <point x="920" y="108" type="line"/>
      <point x="998" y="20"/>
      <point x="1091" y="-20"/>
      <point x="1222" y="-20" type="curve" smooth="yes"/>
      <point x="1604" y="-20"/>
      <point x="1761" y="337"/>
      <point x="1761" y="765" type="curve" smooth="yes"/>
      <point x="1761" y="1222"/>
      <point x="1576" y="1478"/>
      <point x="1278" y="1478" type="curve" smooth="yes"/>
      <point x="1139" y="1478"/>
      <point x="1033" y="1422"/>
      <point x="961" y="1352" type="curve"/>
      <point x="1076" y="1120" type="line"/>
      <point x="1134" y="1173"/>
      <point x="1189" y="1191"/>
      <point x="1240" y="1191" type="curve" smooth="yes"/>
      <point x="1302" y="1191"/>
      <point x="1346" y="1164"/>
      <point x="1378" y="1093" type="curve" smooth="yes"/>
      <point x="1409" y="1025"/>
      <point x="1425" y="928"/>
      <point x="1425" y="784" type="curve" smooth="yes"/>
      <point x="1425" y="671"/>
      <point x="1415" y="577"/>
      <point x="1396" y="506" type="curve" smooth="yes"/>
      <point x="1361" y="375"/>
      <point x="1290" y="295"/>
      <point x="1185" y="295" type="curve" smooth="yes"/>
      <point x="1148" y="295"/>
      <point x="1120" y="305"/>
      <point x="1085" y="351" type="curve"/>
      <point x="1085" y="738" type="line"/>
      <point x="747" y="738" type="line"/>
      <point x="747" y="351" type="line"/>
      <point x="708" y="308"/>
      <point x="685" y="295"/>
      <point x="648" y="295" type="curve" smooth="yes"/>
      <point x="573" y="295"/>
      <point x="494" y="350"/>
      <point x="455" y="451" type="curve" smooth="yes"/>
      <point x="427" y="523"/>
      <point x="412" y="639"/>
      <point x="412" y="782" type="curve" smooth="yes"/>
      <point x="412" y="929"/>
      <point x="428" y="1026"/>
      <point x="459" y="1093" type="curve" smooth="yes"/>
      <point x="491" y="1162"/>
      <point x="536" y="1191"/>
      <point x="590" y="1191" type="curve" smooth="yes"/>
      <point x="644" y="1191"/>
      <point x="703" y="1161"/>
      <point x="756" y="1120" type="curve"/>
      <point x="875" y="1352" type="line"/>
      <point x="799" y="1427"/>
      <point x="696" y="1478"/>
      <point x="562" y="1478" type="curve" smooth="yes"/>
      <point x="261" y="1478"/>
      <point x="75" y="1221"/>
      <point x="75" y="765" type="curve" smooth="yes"/>
      <point x="75" y="327"/>
      <point x="219" y="-20"/>
    </contour>
  </outline>
</glyph>
<glyph name="omega-cy" format="1">
  <advance width="1591"/>
  <unicode hex="0461"/>
  <note>
    uni0461
  </note>
  <outline>
    <contour>
      <point x="295" y="0" type="line"/>
      <point x="695" y="0" type="line"/>
      <point x="711" y="77"/>
      <point x="726" y="153"/>
      <point x="742" y="230" type="curve"/>
      <point x="750" y="267"/>
      <point x="758" y="305"/>
      <point x="766" y="342" type="curve"/>
      <point x="768" y="342" type="line"/>
      <point x="777" y="290"/>
      <point x="790" y="237"/>
      <point x="801" y="185" type="curve" smooth="yes"/>
      <point x="814" y="123"/>
      <point x="826" y="62"/>
      <point x="839" y="0" type="curve"/>
      <point x="1179" y="0" type="line"/>
      <point x="1420" y="277"/>
      <point x="1540" y="644"/>
      <point x="1540" y="1127" type="curve"/>
      <point x="1205" y="1127" type="line"/>
      <point x="1205" y="749"/>
      <point x="1174" y="521"/>
      <point x="1068" y="311" type="curve"/>
      <point x="1060" y="311" type="line"/>
      <point x="1052" y="381"/>
      <point x="1043" y="440"/>
      <point x="1036" y="482" type="curve" smooth="yes"/>
      <point x="936" y="1127" type="line"/>
      <point x="604" y="1127" type="line"/>
      <point x="650" y="903" type="line"/>
      <point x="551" y="511" type="line" smooth="yes"/>
      <point x="545" y="488"/>
      <point x="530" y="407"/>
      <point x="513" y="305" type="curve"/>
      <point x="508" y="305" type="line"/>
      <point x="506" y="327"/>
      <point x="501" y="358"/>
      <point x="498" y="374" type="curve" smooth="yes"/>
      <point x="339" y="1127" type="line"/>
      <point x="-14" y="1127" type="line"/>
    </contour>
  </outline>
</glyph>
<glyph name="Fita-cy" format="1">
  <advance width="1285"/>
  <unicode hex="0472"/>
  <note>
    afii10147
  </note>
  <outline>
    <contour>
      <point x="643" y="-20" type="curve" smooth="yes"/>
      <point x="1008" y="-20"/>
      <point x="1212" y="249"/>
      <point x="1212" y="733" type="curve" smooth="yes"/>
      <point x="1212" y="1218"/>
      <point x="1010" y="1486"/>
      <point x="645" y="1486" type="curve" smooth="yes"/>
      <point x="280" y="1486"/>
      <point x="73" y="1210"/>
      <point x="73" y="735" type="curve" smooth="yes"/>
      <point x="73" y="244"/>
      <point x="277" y="-20"/>
    </contour>
    <contour>
      <point x="643" y="284" type="curve" smooth="yes"/>
      <point x="523" y="284"/>
      <point x="448" y="395"/>
      <point x="430" y="600" type="curve"/>
      <point x="855" y="600" type="line"/>
      <point x="838" y="400"/>
      <point x="767" y="284"/>
    </contour>
    <contour>
      <point x="436" y="900" type="line"/>
      <point x="458" y="1080"/>
      <point x="531" y="1183"/>
      <point x="645" y="1183" type="curve" smooth="yes"/>
      <point x="755" y="1183"/>
      <point x="823" y="1090"/>
      <point x="853" y="900" type="curve"/>
    </contour>
  </outline>
</glyph>
<glyph name="titlocomb-cy" format="1">
  <advance width="1817"/>
  <unicode hex="0483"/>
  <note>
    uni0483
  </note>
  <outline>
    <contour>
      <point x="932" y="1135" type="curve" smooth="yes"/>
      <point x="1007" y="1135"/>
      <point x="1045" y="1167"/>
      <point x="1058" y="1234" type="curve"/>
      <point x="1589" y="1234" type="line" smooth="yes"/>
      <point x="1674" y="1234"/>
      <point x="1717" y="1281"/>
      <point x="1717" y="1378" type="curve" smooth="yes"/>
      <point x="1717" y="1462"/>
      <point x="1680" y="1503"/>
      <point x="1591" y="1503" type="curve" smooth="yes"/>
      <point x="1515" y="1503"/>
      <point x="1476" y="1471"/>
      <point x="1467" y="1404" type="curve"/>
      <point x="935" y="1404" type="line" smooth="yes"/>
      <point x="844" y="1404"/>
      <point x="810" y="1362"/>
      <point x="810" y="1275" type="curve" smooth="yes"/>
      <point x="810" y="1181"/>
      <point x="849" y="1135"/>
    </contour>
  </outline>
</glyph>
<glyph name="palatalizationcomb-cy" format="1">
  <advance width="1881"/>
  <unicode hex="0484"/>
  <note>
    uni0484
  </note>
  <outline>
    <contour>
      <point x="1592" y="1233" type="line"/>
      <point x="1805" y="1233" type="line"/>
      <point x="1806" y="1245"/>
      <point x="1806" y="1259"/>
      <point x="1806" y="1281" type="curve" smooth="yes"/>
      <point x="1806" y="1479"/>
      <point x="1723" y="1582"/>
      <point x="1546" y="1582" type="curve" smooth="yes"/>
      <point x="1452" y="1582"/>
      <point x="1366" y="1553"/>
      <point x="1270" y="1519" type="curve" smooth="yes"/>
      <point x="1155" y="1478"/>
      <point x="1067" y="1463"/>
      <point x="930" y="1463" type="curve"/>
      <point x="930" y="1239" type="line"/>
      <point x="989" y="1238" type="line"/>
      <point x="1020" y="1238"/>
      <point x="1053" y="1238"/>
      <point x="1077" y="1238" type="curve" smooth="yes"/>
      <point x="1150" y="1238"/>
      <point x="1214" y="1253"/>
      <point x="1355" y="1308" type="curve" smooth="yes"/>
      <point x="1414" y="1331"/>
      <point x="1450" y="1344"/>
      <point x="1492" y="1344" type="curve" smooth="yes"/>
      <point x="1562" y="1344"/>
      <point x="1591" y="1307"/>
      <point x="1592" y="1235" type="curve"/>
    </contour>
  </outline>
</glyph>
<glyph name="dasiapneumatacomb-cy" format="1">
  <advance width="1801"/>
  <unicode hex="0485"/>
  <note>
    uni0485
  </note>
  <outline>
    <contour>
      <point x="1469" y="1213" type="curve"/>
      <point x="1469" y="1310" type="line"/>
      <point x="1388" y="1330"/>
      <point x="1349" y="1379"/>
      <point x="1349" y="1406" type="curve" smooth="yes"/>
      <point x="1349" y="1424"/>
      <point x="1366" y="1432"/>
      <point x="1415" y="1447" type="curve" smooth="yes"/>
      <point x="1450" y="1458"/>
      <point x="1478" y="1469"/>
      <point x="1478" y="1515" type="curve" smooth="yes"/>
      <point x="1478" y="1583"/>
      <point x="1415" y="1631"/>
      <point x="1314" y="1631" type="curve" smooth="yes"/>
      <point x="1191" y="1631"/>
      <point x="1126" y="1560"/>
      <point x="1126" y="1468" type="curve" smooth="yes"/>
      <point x="1126" y="1328"/>
      <point x="1278" y="1216"/>
    </contour>
  </outline>
</glyph>
<glyph name="psilipneumatacomb-cy" format="1">
  <advance width="1801"/>
  <unicode hex="0486"/>
  <note>
    uni0486
  </note>
  <outline>
    <contour>
      <point x="1129" y="1213" type="line"/>
      <point x="1306" y="1213"/>
      <point x="1471" y="1326"/>
      <point x="1471" y="1468" type="curve" smooth="yes"/>
      <point x="1471" y="1554"/>
      <point x="1411" y="1631"/>
      <point x="1283" y="1631" type="curve" smooth="yes"/>
      <point x="1189" y="1631"/>
      <point x="1119" y="1590"/>
      <point x="1119" y="1513" type="curve" smooth="yes"/>
      <point x="1119" y="1479"/>
      <point x="1131" y="1461"/>
      <point x="1185" y="1446" type="curve" smooth="yes"/>
      <point x="1218" y="1437"/>
      <point x="1248" y="1428"/>
      <point x="1248" y="1405" type="curve" smooth="yes"/>
      <point x="1248" y="1380"/>
      <point x="1211" y="1331"/>
      <point x="1129" y="1310" type="curve"/>
    </contour>
  </outline>
</glyph>
<glyph name="Ertick-cy" format="1">
  <advance width="1042"/>
  <unicode hex="048E"/>
  <note>
    uni048E
  </note>
  <outline>
    <contour>
      <point x="657" y="317" type="line"/>
      <point x="794" y="366" type="line"/>
      <point x="617" y="966" type="line"/>
      <point x="478" y="920" type="line"/>
    </contour>
    <component base="P"/>
  </outline>
</glyph>
<glyph name="gheupturn-cy" format="1">
  <advance width="824"/>
  <unicode hex="0491"/>
  <note>
    afii10098
  </note>
  <outline>
    <contour>
      <point x="99" y="0" type="line"/>
      <point x="439" y="0" type="line"/>
      <point x="439" y="858" type="line"/>
      <point x="792" y="858" type="line"/>
      <point x="792" y="1426" type="line"/>
      <point x="453" y="1426" type="line"/>
      <point x="453" y="1127" type="line"/>
      <point x="99" y="1127" type="line"/>
    </contour>
  </outline>
</glyph>
<glyph name="ghemiddlehook-cy" format="1">
  <advance width="886"/>
  <unicode hex="0495"/>
  <note>
    uni0495
  </note>
  <outline>
    <contour>
      <point x="446" y="-502" type="curve" smooth="yes"/>
      <point x="530" y="-502"/>
      <point x="609" y="-484"/>
      <point x="676" y="-440" type="curve" smooth="yes"/>
      <point x="813" y="-350"/>
      <point x="891" y="-170"/>
      <point x="891" y="72" type="curve" smooth="yes"/>
      <point x="891" y="168"/>
      <point x="876" y="259"/>
      <point x="844" y="345" type="curve" smooth="yes"/>
      <point x="775" y="530"/>
      <point x="638" y="644"/>
      <point x="470" y="644" type="curve" smooth="yes"/>
      <point x="460" y="644"/>
      <point x="449" y="644"/>
      <point x="439" y="644" type="curve"/>
      <point x="439" y="860" type="line"/>
      <point x="739" y="860" type="line"/>
      <point x="739" y="1127" type="line"/>
      <point x="99" y="1127" type="line"/>
      <point x="99" y="0" type="line"/>
      <point x="439" y="0" type="line"/>
      <point x="439" y="342" type="line"/>
      <point x="432" y="333"/>
      <point x="423" y="329"/>
      <point x="411" y="329" type="curve"/>
      <point x="511" y="317"/>
      <point x="565" y="246"/>
      <point x="565" y="74" type="curve" smooth="yes"/>
      <point x="565" y="-23"/>
      <point x="548" y="-90"/>
      <point x="518" y="-136" type="curve" smooth="yes"/>
      <point x="491" y="-177"/>
      <point x="457" y="-197"/>
      <point x="414" y="-197" type="curve" smooth="yes"/>
      <point x="358" y="-197"/>
      <point x="292" y="-170"/>
      <point x="207" y="-116" type="curve"/>
      <point x="207" y="-441" type="line"/>
      <point x="287" y="-481"/>
      <point x="365" y="-502"/>
    </contour>
  </outline>
</glyph>
<glyph name="Kastroke-cy" format="1">
  <advance width="1151"/>
  <unicode hex="049E"/>
  <note>
    uni049E
  </note>
  <outline>
    <contour>
      <point x="132" y="0" type="line"/>
      <point x="481" y="0" type="line"/>
      <point x="481" y="488" type="line"/>
      <point x="587" y="581" type="line"/>
      <point x="779" y="0" type="line"/>
      <point x="1151" y="0" type="line"/>
      <point x="831" y="834" type="line"/>
      <point x="1155" y="1462" type="line"/>
      <point x="787" y="1462" type="line"/>
      <point x="689" y="1258"/>
      <point x="616" y="1103"/>
      <point x="540" y="940" type="curve" smooth="yes"/>
      <point x="515" y="886"/>
      <point x="497" y="822"/>
      <point x="481" y="759" type="curve"/>
      <point x="481" y="1021" type="line"/>
      <point x="577" y="1021" type="line"/>
      <point x="577" y="1319" type="line"/>
      <point x="481" y="1319" type="line"/>
      <point x="481" y="1462" type="line"/>
      <point x="132" y="1462" type="line"/>
      <point x="132" y="1319" type="line"/>
      <point x="36" y="1319" type="line"/>
      <point x="36" y="1021" type="line"/>
      <point x="132" y="1021" type="line"/>
    </contour>
  </outline>
</glyph>
<glyph name="kastroke-cy" format="1">
  <advance width="1091"/>
  <unicode hex="049F"/>
  <note>
    uni049F
  </note>
  <outline>
    <contour>
      <point x="116" y="0" type="line"/>
      <point x="456" y="0" type="line"/>
      <point x="456" y="576" type="line"/>
      <point x="730" y="0" type="line"/>
      <point x="1100" y="0" type="line"/>
      <point x="785" y="591" type="line"/>
      <point x="1085" y="1127" type="line"/>
      <point x="732" y="1127" type="line"/>
      <point x="456" y="586" type="line"/>
      <point x="456" y="1102" type="line"/>
      <point x="665" y="1102" type="line"/>
      <point x="665" y="1333" type="line"/>
      <point x="456" y="1333" type="line"/>
      <point x="456" y="1556" type="line"/>
      <point x="116" y="1556" type="line"/>
      <point x="116" y="1333" type="line"/>
      <point x="6" y="1333" type="line"/>
      <point x="6" y="1102" type="line"/>
      <point x="116" y="1102" type="line"/>
    </contour>
  </outline>
</glyph>
<glyph name="kabashkir-cy" format="1">
  <advance width="1311"/>
  <unicode hex="04A1"/>
  <note>
    uni04A1
  </note>
  <outline>
    <contour>
      <point x="326" y="0" type="line"/>
      <point x="669" y="0" type="line"/>
      <point x="669" y="579" type="line"/>
      <point x="944" y="0" type="line"/>
      <point x="1313" y="0" type="line"/>
      <point x="999" y="591" type="line"/>
      <point x="1298" y="1127" type="line"/>
      <point x="942" y="1127" type="line"/>
      <point x="669" y="579" type="line"/>
      <point x="669" y="1127" type="line"/>
      <point x="1" y="1127" type="line"/>
      <point x="1" y="856" type="line"/>
      <point x="326" y="856" type="line"/>
    </contour>
  </outline>
</glyph>
<glyph name="tedescender-cy" format="1">
  <advance width="975"/>
  <unicode hex="04AD"/>
  <note>
    uni04AD
  </note>
  <outline>
    <contour>
      <point x="487" y="-410" type="line"/>
      <point x="823" y="-410" type="line"/>
      <point x="823" y="260" type="line"/>
      <point x="657" y="260" type="line"/>
      <point x="657" y="856" type="line"/>
      <point x="928" y="856" type="line"/>
      <point x="928" y="1127" type="line"/>
      <point x="46" y="1127" type="line"/>
      <point x="46" y="856" type="line"/>
      <point x="318" y="856" type="line"/>
      <point x="318" y="0" type="line"/>
      <point x="487" y="0" type="line"/>
    </contour>
  </outline>
</glyph>
<glyph name="ustrait-cy" format="1">
  <advance width="1026"/>
  <unicode hex="04AF"/>
  <note>
    uni04AF
  </note>
  <outline>
    <contour>
      <point x="344" y="-492" type="line"/>
      <point x="683" y="-492" type="line"/>
      <point x="683" y="-46.628" type="line"/>
      <point x="1031" y="1127" type="line"/>
      <point x="678" y="1127" type="line"/>
      <point x="543" y="504" type="line" smooth="yes"/>
      <point x="532" y="453"/>
      <point x="514" y="284"/>
      <point x="514" y="251" type="curve"/>
      <point x="512" y="251" type="line"/>
      <point x="512" y="284"/>
      <point x="494" y="453"/>
      <point x="483" y="504" type="curve" smooth="yes"/>
      <point x="348" y="1127" type="line"/>
      <point x="-5" y="1127" type="line"/>
      <point x="344" y="-43.293" type="line"/>
    </contour>
  </outline>
</glyph>
<glyph name="Tetse-cy" format="1">
  <advance width="1499"/>
  <unicode hex="04B4"/>
  <note>
    uni04B4
  </note>
  <outline>
    <contour>
      <point x="1142" y="-440" type="line"/>
      <point x="1476" y="-440" type="line"/>
      <point x="1476" y="287" type="line"/>
      <point x="1292" y="287" type="line"/>
      <point x="1292" y="1462" type="line"/>
      <point x="946" y="1462" type="line"/>
      <point x="946" y="302" type="line"/>
      <point x="653" y="302" type="line"/>
      <point x="653" y="1161" type="line"/>
      <point x="855" y="1161" type="line"/>
      <point x="855" y="1462" type="line"/>
      <point x="33" y="1462" type="line"/>
      <point x="33" y="1161" type="line"/>
      <point x="305" y="1161" type="line"/>
      <point x="305" y="0" type="line"/>
      <point x="1142" y="0" type="line"/>
    </contour>
  </outline>
</glyph>
<glyph name="shha-cy" format="1">
  <advance width="1110"/>
  <unicode hex="04BB"/>
  <note>
    uni04BB
  </note>
  <outline>
    <contour>
      <point x="99" y="0" type="line"/>
      <point x="439" y="0" type="line"/>
      <point x="439" y="332" type="line" smooth="yes"/>
      <point x="439" y="413"/>
      <point x="445" y="455"/>
      <point x="468" y="507" type="curve" smooth="yes"/>
      <point x="479" y="532"/>
      <point x="523" y="550"/>
      <point x="577" y="550" type="curve" smooth="yes"/>
      <point x="653" y="550"/>
      <point x="682" y="512"/>
      <point x="682" y="418" type="curve" smooth="yes"/>
      <point x="682" y="0" type="line"/>
      <point x="1025" y="0" type="line"/>
      <point x="1025" y="483" type="line" smooth="yes"/>
      <point x="1025" y="709"/>
      <point x="908" y="831"/>
      <point x="685" y="831" type="curve" smooth="yes"/>
      <point x="580" y="831"/>
      <point x="514" y="798"/>
      <point x="450" y="714" type="curve"/>
      <point x="427" y="714" type="line"/>
      <point x="436" y="815"/>
      <point x="439" y="861"/>
      <point x="439" y="888" type="curve" smooth="yes"/>
      <point x="439" y="1127" type="line"/>
      <point x="99" y="1127" type="line"/>
    </contour>
    <contour>
      <point x="1084" y="0" type="move" name="bottomright"/>
    </contour>
  </outline>
</glyph>
<glyph name="cheabkhasian-cy" format="1">
  <advance width="1278"/>
  <unicode hex="04BD"/>
  <note>
    uni04BD
  </note>
  <outline>
    <contour>
      <point x="367" y="466" type="line"/>
      <point x="366" y="705" type="line"/>
      <point x="333" y="705" type="line" smooth="yes"/>
      <point x="282" y="705"/>
      <point x="256" y="728"/>
      <point x="256" y="775" type="curve" smooth="yes"/>
      <point x="256" y="812"/>
      <point x="265" y="847"/>
      <point x="280" y="880" type="curve"/>
      <point x="50" y="880" type="line"/>
      <point x="19" y="833"/>
      <point x="5" y="773"/>
      <point x="5" y="704" type="curve" smooth="yes"/>
      <point x="5" y="546"/>
      <point x="123" y="465"/>
      <point x="363" y="466" type="curve"/>
    </contour>
    <component base="e" xOffset="276"/>
  </outline>
</glyph>
<glyph name="Enhook-cy" format="1">
  <advance width="1219"/>
  <unicode hex="04C7"/>
  <note>
    uni04C7
  </note>
  <outline>
    <contour>
      <point x="608" y="-512" type="curve" smooth="yes"/>
      <point x="903" y="-512"/>
      <point x="1103" y="-257"/>
      <point x="1103" y="132" type="curve" smooth="yes"/>
      <point x="1103" y="1462" type="line"/>
      <point x="756" y="1462" type="line"/>
      <point x="756" y="910" type="line"/>
      <point x="462" y="910" type="line"/>
      <point x="462" y="1462" type="line"/>
      <point x="115" y="1462" type="line"/>
      <point x="115" y="0" type="line"/>
      <point x="462" y="0" type="line"/>
      <point x="462" y="608" type="line"/>
      <point x="756" y="608" type="line"/>
      <point x="756" y="170" type="line" smooth="yes"/>
      <point x="756" y="79"/>
      <point x="745" y="3"/>
      <point x="726" y="-54" type="curve" smooth="yes"/>
      <point x="697" y="-140"/>
      <point x="643" y="-193"/>
      <point x="570" y="-193" type="curve" smooth="yes"/>
      <point x="487" y="-193"/>
      <point x="402" y="-173"/>
      <point x="294" y="-133" type="curve"/>
      <point x="294" y="-456" type="line"/>
      <point x="378" y="-491"/>
      <point x="476" y="-512"/>
    </contour>
  </outline>
</glyph>
<glyph name="Emtail-cy" format="1">
  <advance width="1694"/>
  <unicode hex="04CD"/>
  <note>
    uni04CD
  </note>
  <outline>
    <contour>
      <point x="1225" y="-440" type="line"/>
      <point x="1633" y="-440" type="line"/>
      <point x="1830" y="312" type="line"/>
      <point x="1579" y="312" type="line"/>
      <point x="1579" y="1462" type="line"/>
      <point x="1043" y="1462" type="line"/>
      <point x="905" y="663" type="line" smooth="yes"/>
      <point x="891" y="583"/>
      <point x="873" y="499"/>
      <point x="851" y="408" type="curve"/>
      <point x="843" y="408" type="line"/>
      <point x="821" y="499"/>
      <point x="803" y="583"/>
      <point x="789" y="663" type="curve" smooth="yes"/>
      <point x="651" y="1462" type="line"/>
      <point x="115" y="1462" type="line"/>
      <point x="115" y="0" type="line"/>
      <point x="436" y="0" type="line"/>
      <point x="436" y="946" type="line" smooth="yes"/>
      <point x="436" y="1043"/>
      <point x="428" y="1131"/>
      <point x="413" y="1208" type="curve"/>
      <point x="425" y="1208" type="line"/>
      <point x="656" y="0" type="line"/>
      <point x="1038" y="0" type="line"/>
      <point x="1269" y="1208" type="line"/>
      <point x="1281" y="1208" type="line"/>
      <point x="1266" y="1131"/>
      <point x="1258" y="1043"/>
      <point x="1258" y="946" type="curve" smooth="yes"/>
      <point x="1258" y="0" type="line"/>
      <point x="1437.381" y="0" type="line"/>
    </contour>
  </outline>
</glyph>
<glyph name="Gedescender-cy" format="1">
  <advance width="876"/>
  <unicode hex="04F6"/>
  <note>
    uni04F6
  </note>
  <outline>
    <contour>
      <point x="307" y="-440" type="line"/>
      <point x="643" y="-440" type="line"/>
      <point x="643" y="287" type="line"/>
      <point x="460" y="287" type="line"/>
      <point x="460" y="1166" type="line"/>
      <point x="830" y="1166" type="line"/>
      <point x="830" y="1462" type="line"/>
      <point x="115" y="1462" type="line"/>
      <point x="115" y="0" type="line"/>
      <point x="307" y="0" type="line"/>
    </contour>
  </outline>
</glyph>
<glyph name="Gestrokehook-cy" format="1">
  <advance width="1580"/>
  <unicode hex="04FA"/>
  <note>
    uni04FA
  </note>
  <outline>
    <component base="Ghestroke-cy"/>
    <component base="cyrillicbighookUC" xOffset="893"/>
    <contour>
      <point x="349.70972" y="1" type="move" name="cyrillicbighook"/>
    </contour>
  </outline>
</glyph>
<glyph name="komisje-cy" format="1">
  <advance width="1131"/>
  <unicode hex="050D"/>
  <note>
    uni050D
  </note>
  <outline>
    <contour>
      <point x="580" y="-20" type="curve" smooth="yes"/>
      <point x="915" y="-20"/>
      <point x="1081" y="183"/>
      <point x="1081" y="596" type="curve" smooth="yes"/>
      <point x="1081" y="693" type="line"/>
      <point x="516" y="693" type="line"/>
      <point x="516" y="426" type="line"/>
      <point x="741" y="426" type="line"/>
      <point x="730" y="321"/>
      <point x="668" y="268"/>
      <point x="573" y="268" type="curve" smooth="yes"/>
      <point x="471" y="268"/>
      <point x="412" y="346"/>
      <point x="412" y="548" type="curve" smooth="yes"/>
      <point x="412" y="764"/>
      <point x="469" y="860"/>
      <point x="603" y="860" type="curve" smooth="yes"/>
      <point x="700" y="860"/>
      <point x="762" y="846"/>
      <point x="855" y="784" type="curve"/>
      <point x="963" y="1045" type="line"/>
      <point x="857" y="1114"/>
      <point x="734" y="1148"/>
      <point x="596" y="1148" type="curve" smooth="yes"/>
      <point x="254" y="1148"/>
      <point x="65" y="931"/>
      <point x="65" y="554" type="curve" smooth="yes"/>
      <point x="65" y="191"/>
      <point x="256" y="-20"/>
    </contour>
  </outline>
</glyph>
<glyph name="sheva-hb" format="1">
  <advance width="215"/>
  <unicode hex="05B0"/>
  <note>
    afii57799
  </note>
  <outline>
    <contour>
      <point x="108" y="-293" type="curve" smooth="yes"/>
      <point x="173" y="-293"/>
      <point x="215" y="-256"/>
      <point x="215" y="-202" type="curve" smooth="yes"/>
      <point x="215" y="-148"/>
      <point x="173" y="-110"/>
      <point x="108" y="-110" type="curve" smooth="yes"/>
      <point x="43" y="-110"/>
      <point x="0" y="-148"/>
      <point x="0" y="-202" type="curve" smooth="yes"/>
      <point x="0" y="-256"/>
      <point x="43" y="-293"/>
    </contour>
    <contour>
      <point x="108" y="-524" type="curve" smooth="yes"/>
      <point x="173" y="-524"/>
      <point x="215" y="-486"/>
      <point x="215" y="-433" type="curve" smooth="yes"/>
      <point x="215" y="-380"/>
      <point x="173" y="-341"/>
      <point x="108" y="-341" type="curve" smooth="yes"/>
      <point x="43" y="-341"/>
      <point x="0" y="-380"/>
      <point x="0" y="-434" type="curve" smooth="yes"/>
      <point x="0" y="-488"/>
      <point x="43" y="-524"/>
    </contour>
    <contour>
      <point x="105" y="-90" type="move" name="_bottom"/>
    </contour>
  </outline>
</glyph>
<glyph name="hatafpatah-hb" format="1">
  <advance width="299"/>
  <unicode hex="05B2"/>
  <note>
    afii57800
  </note>
  <outline>
    <contour>
      <point x="-184" y="-288" type="line"/>
      <point x="189" y="-288" type="line"/>
      <point x="189" y="-152" type="line"/>
      <point x="-184" y="-152" type="line"/>
    </contour>
    <contour>
      <point x="379" y="-545" type="curve" smooth="yes"/>
      <point x="443" y="-545"/>
      <point x="483" y="-507"/>
      <point x="483" y="-454" type="curve" smooth="yes"/>
      <point x="483" y="-401"/>
      <point x="441" y="-363"/>
      <point x="379" y="-363" type="curve" smooth="yes"/>
      <point x="319" y="-363"/>
      <point x="270" y="-393"/>
      <point x="270" y="-454" type="curve" smooth="yes"/>
      <point x="270" y="-510"/>
      <point x="313" y="-545"/>
    </contour>
    <contour>
      <point x="379" y="-314" type="curve" smooth="yes"/>
      <point x="443" y="-314"/>
      <point x="483" y="-278"/>
      <point x="483" y="-223" type="curve" smooth="yes"/>
      <point x="483" y="-169"/>
      <point x="441" y="-131"/>
      <point x="379" y="-131" type="curve" smooth="yes"/>
      <point x="319" y="-131"/>
      <point x="270" y="-160"/>
      <point x="270" y="-222" type="curve" smooth="yes"/>
      <point x="270" y="-278"/>
      <point x="312" y="-314"/>
    </contour>
    <contour>
      <point x="150" y="-111" type="move" name="_bottom"/>
    </contour>
  </outline>
</glyph>
<glyph name="hatafqamats-hb" format="1">
  <advance width="305"/>
  <unicode hex="05B3"/>
  <note>
    afii57802
  </note>
  <outline>
    <contour>
      <point x="-198" y="-490" type="line"/>
      <point x="-71" y="-490" type="line"/>
      <point x="-71" y="-288" type="line"/>
      <point x="51" y="-288" type="line"/>
      <point x="51" y="-152" type="line"/>
      <point x="-321" y="-152" type="line"/>
      <point x="-321" y="-288" type="line"/>
      <point x="-198" y="-288" type="line"/>
    </contour>
    <contour>
      <point x="246" y="-545" type="curve" smooth="yes"/>
      <point x="310" y="-545"/>
      <point x="351" y="-507"/>
      <point x="351" y="-454" type="curve" smooth="yes"/>
      <point x="351" y="-401"/>
      <point x="310" y="-363"/>
      <point x="246" y="-363" type="curve" smooth="yes"/>
      <point x="180" y="-363"/>
      <point x="138" y="-401"/>
      <point x="138" y="-455" type="curve" smooth="yes"/>
      <point x="138" y="-510"/>
      <point x="180" y="-545"/>
    </contour>
    <contour>
      <point x="246" y="-314" type="curve" smooth="yes"/>
      <point x="310" y="-314"/>
      <point x="351" y="-278"/>
      <point x="351" y="-223" type="curve" smooth="yes"/>
      <point x="351" y="-169"/>
      <point x="310" y="-131"/>
      <point x="246" y="-131" type="curve" smooth="yes"/>
      <point x="180" y="-131"/>
      <point x="138" y="-169"/>
      <point x="138" y="-223" type="curve" smooth="yes"/>
      <point x="138" y="-278"/>
      <point x="180" y="-314"/>
    </contour>
    <contour>
      <point x="15" y="-111" type="move" name="_bottom"/>
    </contour>
  </outline>
</glyph>
<glyph name="patah-hb" format="1">
  <advance width="16"/>
  <unicode hex="05B7"/>
  <note>
    afii57798
  </note>
  <outline>
    <contour>
      <point x="-196" y="-256" type="line"/>
      <point x="213" y="-256" type="line"/>
      <point x="213" y="-122" type="line"/>
      <point x="-196" y="-122" type="line"/>
    </contour>
    <contour>
      <point x="9" y="-102" type="move" name="_bottom"/>
    </contour>
  </outline>
</glyph>
<glyph name="maqaf-hb" format="1">
  <advance width="628"/>
  <unicode hex="05BE"/>
  <note>
    afii57645
  </note>
  <outline>
    <contour>
      <point x="43" y="1000" type="line"/>
      <point x="585" y="1000" type="line"/>
      <point x="585" y="1291" type="line"/>
      <point x="43" y="1291" type="line"/>
    </contour>
  </outline>
</glyph>
<glyph name="finalkaf-hb" format="1">
  <advance width="854"/>
  <unicode hex="05DA"/>
  <note>
    afii57674
  </note>
  <outline>
    <contour>
      <point x="430" y="-492" type="line"/>
      <point x="768" y="-492" type="line"/>
      <point x="768" y="745" type="line" smooth="yes"/>
      <point x="768" y="789"/>
      <point x="765" y="854"/>
      <point x="762" y="894" type="curve" smooth="yes"/>
      <point x="755" y="975"/>
      <point x="722" y="1094"/>
      <point x="667" y="1168" type="curve" smooth="yes"/>
      <point x="603" y="1254"/>
      <point x="486" y="1310"/>
      <point x="292" y="1310" type="curve" smooth="yes"/>
      <point x="254" y="1310"/>
      <point x="210" y="1308"/>
      <point x="163" y="1304" type="curve" smooth="yes"/>
      <point x="121" y="1300"/>
      <point x="77" y="1295"/>
      <point x="33" y="1288" type="curve"/>
      <point x="33" y="1014" type="line"/>
      <point x="74" y="1016"/>
      <point x="111" y="1018"/>
      <point x="144" y="1019" type="curve" smooth="yes"/>
      <point x="208" y="1021"/>
      <point x="260" y="1022"/>
      <point x="306" y="1022" type="curve" smooth="yes"/>
      <point x="329" y="1022"/>
      <point x="354" y="1009"/>
      <point x="374" y="985" type="curve" smooth="yes"/>
      <point x="389" y="968"/>
      <point x="401" y="946"/>
      <point x="408" y="920" type="curve" smooth="yes"/>
      <point x="421" y="874"/>
      <point x="430" y="798"/>
      <point x="430" y="745" type="curve" smooth="yes"/>
    </contour>
    <contour>
      <point x="413" y="0" type="move" name="bottom"/>
    </contour>
    <contour>
      <point x="-8" y="0" type="move" name="bottomleft"/>
    </contour>
    <contour>
      <point x="413" y="563" type="move" name="center"/>
    </contour>
    <contour>
      <point x="413" y="1127" type="move" name="top"/>
    </contour>
    <contour>
      <point x="-8" y="1127" type="move" name="topleft"/>
    </contour>
  </outline>
</glyph>
<glyph name="kaf-hb" format="1">
  <advance width="845"/>
  <unicode hex="05DB"/>
  <note>
    afii57675
  </note>
  <outline>
    <contour>
      <point x="351" y="-20" type="curve" smooth="yes"/>
      <point x="399" y="-20"/>
      <point x="466" y="-10"/>
      <point x="517" y="13" type="curve" smooth="yes"/>
      <point x="623" y="61"/>
      <point x="683" y="130"/>
      <point x="725" y="226" type="curve" smooth="yes"/>
      <point x="762" y="311"/>
      <point x="781" y="409"/>
      <point x="781" y="517" type="curve" smooth="yes"/>
      <point x="781" y="745" type="line" smooth="yes"/>
      <point x="781" y="805"/>
      <point x="778" y="861"/>
      <point x="772" y="910" type="curve" smooth="yes"/>
      <point x="760" y="1007"/>
      <point x="724" y="1116"/>
      <point x="667" y="1180" type="curve" smooth="yes"/>
      <point x="602" y="1253"/>
      <point x="497" y="1310"/>
      <point x="318" y="1310" type="curve" smooth="yes"/>
      <point x="246" y="1310"/>
      <point x="177" y="1305"/>
      <point x="106" y="1296" type="curve" smooth="yes"/>
      <point x="86" y="1294"/>
      <point x="66" y="1291"/>
      <point x="46" y="1288" type="curve"/>
      <point x="46" y="1002" type="line"/>
      <point x="69" y="1005"/>
      <point x="90" y="1008"/>
      <point x="109" y="1011" type="curve" smooth="yes"/>
      <point x="204" y="1022"/>
      <point x="261" y="1022"/>
      <point x="323" y="1022" type="curve" smooth="yes"/>
      <point x="354" y="1022"/>
      <point x="380" y="1000"/>
      <point x="399" y="960" type="curve" smooth="yes"/>
      <point x="422" y="913"/>
      <point x="434" y="839"/>
      <point x="434" y="745" type="curve" smooth="yes"/>
      <point x="434" y="517" type="line" smooth="yes"/>
      <point x="434" y="473"/>
      <point x="433" y="430"/>
      <point x="429" y="393" type="curve" smooth="yes"/>
      <point x="425" y="362"/>
      <point x="418" y="335"/>
      <point x="406" y="314" type="curve" smooth="yes"/>
      <point x="391" y="286"/>
      <point x="367" y="269"/>
      <point x="330" y="269" type="curve" smooth="yes"/>
      <point x="198" y="269"/>
      <point x="127" y="282"/>
      <point x="44" y="302" type="curve"/>
      <point x="44" y="14" type="line"/>
      <point x="117" y="-9"/>
      <point x="213" y="-20"/>
    </contour>
    <contour>
      <point x="416" y="0" type="move" name="bottom"/>
    </contour>
    <contour>
      <point x="5" y="0" type="move" name="bottomleft"/>
    </contour>
    <contour>
      <point x="416" y="563" type="move" name="center"/>
    </contour>
    <contour>
      <point x="416" y="1127" type="move" name="top"/>
    </contour>
    <contour>
      <point x="5" y="1127" type="move" name="topleft"/>
    </contour>
  </outline>
</glyph>
<glyph name="resh-hb" format="1">
  <advance width="871"/>
  <unicode hex="05E8"/>
  <note>
    afii57688
  </note>
  <outline>
    <contour>
      <point x="445" y="0" type="line"/>
      <point x="785" y="0" type="line"/>
      <point x="785" y="823" type="line" smooth="yes"/>
      <point x="785" y="952"/>
      <point x="785" y="1063"/>
      <point x="735" y="1149" type="curve" smooth="yes"/>
      <point x="704" y="1201"/>
      <point x="663" y="1238"/>
      <point x="607" y="1263" type="curve" smooth="yes"/>
      <point x="539" y="1293"/>
      <point x="445.99" y="1310"/>
      <point x="327" y="1310" type="curve" smooth="yes"/>
      <point x="256" y="1310"/>
      <point x="154" y="1304"/>
      <point x="35" y="1292" type="curve"/>
      <point x="35" y="1020" type="line"/>
      <point x="98" y="1026"/>
      <point x="231" y="1037"/>
      <point x="280" y="1037" type="curve" smooth="yes"/>
      <point x="321" y="1037"/>
      <point x="364" y="1024"/>
      <point x="388" y="1007" type="curve" smooth="yes"/>
      <point x="432" y="976"/>
      <point x="445" y="909"/>
      <point x="445" y="824" type="curve" smooth="yes"/>
    </contour>
    <contour>
      <point x="427" y="0" type="move" name="bottom"/>
    </contour>
    <contour>
      <point x="3" y="0" type="move" name="bottomleft"/>
    </contour>
    <contour>
      <point x="427" y="563" type="move" name="center"/>
    </contour>
    <contour>
      <point x="427" y="1127" type="move" name="top"/>
    </contour>
    <contour>
      <point x="3" y="1127" type="move" name="topleft"/>
    </contour>
  </outline>
</glyph>
<glyph name="Germandbls" format="1">
  <advance width="1328"/>
  <unicode hex="1E9E"/>
  <outline>
    <contour>
      <point x="867" y="-20" type="curve" smooth="yes"/>
      <point x="1150" y="-20"/>
      <point x="1293" y="114"/>
      <point x="1293" y="391" type="curve" smooth="yes"/>
      <point x="1293" y="507"/>
      <point x="1274" y="577"/>
      <point x="1230" y="638" type="curve" smooth="yes"/>
      <point x="1187" y="697"/>
      <point x="1122" y="745"/>
      <point x="1049" y="794" type="curve" smooth="yes"/>
      <point x="945" y="864"/>
      <point x="880" y="908"/>
      <point x="880" y="998" type="curve" smooth="yes"/>
      <point x="880" y="1042"/>
      <point x="895" y="1080"/>
      <point x="935" y="1095" type="curve"/>
      <point x="1044" y="1336" type="line"/>
      <point x="963" y="1433"/>
      <point x="812" y="1487"/>
      <point x="608" y="1487" type="curve" smooth="yes"/>
      <point x="226" y="1487"/>
      <point x="115" y="1414"/>
      <point x="115" y="1068" type="curve" smooth="yes"/>
      <point x="115" y="0" type="line"/>
      <point x="455" y="0" type="line"/>
      <point x="455" y="1053" type="line" smooth="yes"/>
      <point x="455" y="1178"/>
      <point x="511" y="1211"/>
      <point x="628" y="1211" type="curve"/>
      <point x="634" y="1225"/>
      <point x="641" y="1238"/>
      <point x="647" y="1252" type="curve"/>
      <point x="581" y="1182"/>
      <point x="538" y="1106"/>
      <point x="538" y="976" type="curve" smooth="yes"/>
      <point x="538" y="791"/>
      <point x="608" y="666"/>
      <point x="767" y="578" type="curve" smooth="yes"/>
      <point x="836" y="540"/>
      <point x="894" y="507"/>
      <point x="924" y="460" type="curve" smooth="yes"/>
      <point x="942" y="431"/>
      <point x="950" y="396"/>
      <point x="950" y="359" type="curve" smooth="yes"/>
      <point x="950" y="299"/>
      <point x="898" y="278"/>
      <point x="837" y="278" type="curve" smooth="yes"/>
      <point x="743" y="278"/>
      <point x="647" y="323"/>
      <point x="526" y="404" type="curve"/>
      <point x="526" y="65" type="line"/>
      <point x="618" y="9"/>
      <point x="740" y="-20"/>
    </contour>
  </outline>
</glyph>
<glyph name="dasiaoxia" format="1">
  <advance width="884"/>
  <unicode hex="1FDE"/>
  <outline>
    <contour>
      <point x="482" y="1138" type="line"/>
      <point x="636" y="1138" type="line"/>
      <point x="776" y="1302"/>
      <point x="838" y="1375"/>
      <point x="878" y="1445" type="curve"/>
      <point x="878" y="1465" type="line"/>
      <point x="569" y="1465" type="line"/>
      <point x="554" y="1412"/>
      <point x="502" y="1235"/>
      <point x="482" y="1167" type="curve"/>
    </contour>
    <contour>
      <point x="268" y="1128" type="curve" smooth="yes"/>
      <point x="345" y="1128"/>
      <point x="400" y="1154"/>
      <point x="400" y="1213" type="curve" smooth="yes"/>
      <point x="400" y="1247"/>
      <point x="381" y="1266"/>
      <point x="340" y="1278" type="curve" smooth="yes"/>
      <point x="296" y="1291"/>
      <point x="276" y="1297"/>
      <point x="276" y="1318" type="curve" smooth="yes"/>
      <point x="276" y="1332"/>
      <point x="284" y="1345"/>
      <point x="307" y="1358" type="curve" smooth="yes"/>
      <point x="339" y="1376"/>
      <point x="372" y="1386"/>
      <point x="419" y="1400" type="curve"/>
      <point x="419" y="1483" type="line"/>
      <point x="218" y="1458"/>
      <point x="102" y="1382"/>
      <point x="102" y="1262" type="curve" smooth="yes"/>
      <point x="102" y="1170"/>
      <point x="169" y="1128"/>
    </contour>
    <contour>
      <point x="490" y="1127" type="move" name="_top"/>
    </contour>
    <contour>
      <point x="825.757" y="1462" type="move" name="_topleft"/>
    </contour>
    <contour>
      <point x="490" y="1483" type="move" name="top"/>
    </contour>
  </outline>
</glyph>
<glyph name="emdash" format="1">
  <advance width="1377"/>
  <unicode hex="2014"/>
  <note>
    emdash
  </note>
  <outline>
    <contour>
      <point x="65" y="412" type="line"/>
      <point x="1311" y="412" type="line"/>
      <point x="1311" y="687" type="line"/>
      <point x="65" y="687" type="line"/>
    </contour>
  </outline>
</glyph>
<glyph name="horizontalbar" format="1">
  <advance width="1377"/>
  <unicode hex="2015"/>
  <note>
    afii00208
  </note>
  <outline>
    <contour>
      <point x="65" y="412" type="line"/>
      <point x="1311" y="412" type="line"/>
      <point x="1311" y="687" type="line"/>
      <point x="65" y="687" type="line"/>
    </contour>
  </outline>
</glyph>
<glyph name="underscoredbl" format="1">
  <advance width="842"/>
  <unicode hex="2017"/>
  <note>
    underscoredbl
  </note>
  <outline>
    <contour>
      <point x="-4" y="-149" type="line"/>
      <point x="846" y="-149" type="line"/>
      <point x="846" y="15" type="line"/>
      <point x="-4" y="15" type="line"/>
    </contour>
    <contour>
      <point x="-4" y="-452" type="line"/>
      <point x="846" y="-452" type="line"/>
      <point x="846" y="-289" type="line"/>
      <point x="-4" y="-289" type="line"/>
    </contour>
  </outline>
</glyph>
<glyph name="quoteleft" format="1">
  <advance width="464"/>
  <unicode hex="2018"/>
  <note>
    quoteleft
  </note>
  <outline>
    <contour>
      <point x="25" y="947" type="line"/>
      <point x="354" y="947" type="line"/>
      <point x="363" y="1023"/>
      <point x="416" y="1296"/>
      <point x="454" y="1462" type="curve"/>
      <point x="192" y="1462" type="line"/>
      <point x="113" y="1296"/>
      <point x="38" y="1089"/>
      <point x="10" y="969" type="curve"/>
    </contour>
  </outline>
</glyph>
<glyph name="quoteright" format="1">
  <advance width="464"/>
  <unicode hex="2019"/>
  <note>
    quoteright
  </note>
  <outline>
    <contour>
      <point x="10" y="947" type="curve"/>
      <point x="274" y="947" type="line"/>
      <point x="364" y="1150"/>
      <point x="424" y="1315"/>
      <point x="454" y="1440" type="curve"/>
      <point x="440" y="1462" type="line"/>
      <point x="111" y="1462" type="line"/>
      <point x="83" y="1290"/>
      <point x="50" y="1118"/>
    </contour>
  </outline>
</glyph>
<glyph name="quotedblleft" format="1">
  <advance width="964"/>
  <unicode hex="201C"/>
  <note>
    quotedblleft
  </note>
  <outline>
    <contour>
      <point x="25" y="947" type="line"/>
      <point x="354" y="947" type="line"/>
      <point x="363" y="1023"/>
      <point x="416" y="1296"/>
      <point x="454" y="1462" type="curve"/>
      <point x="192" y="1462" type="line"/>
      <point x="113" y="1296"/>
      <point x="38" y="1089"/>
      <point x="10" y="969" type="curve"/>
    </contour>
    <contour>
      <point x="525" y="947" type="line"/>
      <point x="852" y="947" type="line"/>
      <point x="878" y="1108"/>
      <point x="912" y="1280"/>
      <point x="953" y="1462" type="curve"/>
      <point x="691" y="1462" type="line"/>
      <point x="641" y="1358"/>
      <point x="551" y="1129"/>
      <point x="511" y="969" type="curve"/>
    </contour>
  </outline>
</glyph>
<glyph name="minute" format="1">
  <advance width="553"/>
  <unicode hex="2032"/>
  <note>
    minute
  </note>
  <outline>
    <contour>
      <point x="159" y="934" type="line"/>
      <point x="391" y="934" type="line"/>
      <point x="438" y="1462" type="line"/>
      <point x="116" y="1462" type="line"/>
    </contour>
  </outline>
</glyph>
<glyph name="guilsinglleft" format="1">
  <advance width="714"/>
  <unicode hex="2039"/>
  <note>
    guilsinglleft
  </note>
  <outline>
    <contour>
      <point x="386" y="76" type="line"/>
      <point x="645" y="220" type="line"/>
      <point x="423" y="570" type="line"/>
      <point x="645" y="919" type="line"/>
      <point x="386" y="1063" type="line"/>
      <point x="70" y="582" type="line"/>
      <point x="70" y="556" type="line"/>
    </contour>
  </outline>
</glyph>
<glyph name="franc" format="1">
  <advance width="1004"/>
  <unicode hex="20A3"/>
  <note>
    franc
  </note>
  <outline>
    <contour>
      <point x="162" y="0" type="line"/>
      <point x="504" y="0" type="line"/>
      <point x="504" y="247" type="line"/>
      <point x="696" y="247" type="line"/>
      <point x="696" y="455" type="line"/>
      <point x="504" y="455" type="line"/>
      <point x="504" y="603" type="line"/>
      <point x="848" y="603" type="line"/>
      <point x="848" y="900" type="line"/>
      <point x="504" y="900" type="line"/>
      <point x="504" y="1166" type="line"/>
      <point x="877" y="1166" type="line"/>
      <point x="877" y="1462" type="line"/>
      <point x="162" y="1462" type="line"/>
      <point x="162" y="455" type="line"/>
      <point x="29" y="455" type="line"/>
      <point x="29" y="247" type="line"/>
      <point x="162" y="247" type="line"/>
    </contour>
  </outline>
</glyph>
<glyph name="peseta" format="1">
  <advance width="1645"/>
  <unicode hex="20A7"/>
  <note>
    peseta
  </note>
  <outline>
    <contour>
      <point x="110" y="0" type="line"/>
      <point x="448" y="0" type="line"/>
      <point x="448" y="498" type="line"/>
      <point x="453" y="498" type="line" smooth="yes"/>
      <point x="792" y="498"/>
      <point x="981" y="683"/>
      <point x="981" y="999" type="curve" smooth="yes"/>
      <point x="981" y="1302"/>
      <point x="813" y="1462"/>
      <point x="487" y="1462" type="curve" smooth="yes"/>
      <point x="110" y="1462" type="line"/>
    </contour>
    <contour>
      <point x="448" y="796" type="line"/>
      <point x="448" y="1165" type="line"/>
      <point x="483" y="1165" type="line" smooth="yes"/>
      <point x="593" y="1165"/>
      <point x="642" y="1104"/>
      <point x="642" y="988" type="curve" smooth="yes"/>
      <point x="642" y="854"/>
      <point x="575" y="796"/>
      <point x="464" y="796" type="curve" smooth="yes"/>
    </contour>
    <contour>
      <point x="1348" y="-20" type="curve" smooth="yes"/>
      <point x="1434" y="-20"/>
      <point x="1511" y="-4"/>
      <point x="1578" y="29" type="curve"/>
      <point x="1578" y="270" type="line"/>
      <point x="1534" y="249"/>
      <point x="1493" y="240"/>
      <point x="1455" y="240" type="curve" smooth="yes"/>
      <point x="1409" y="240"/>
      <point x="1381" y="275"/>
      <point x="1381" y="350" type="curve" smooth="yes"/>
      <point x="1381" y="603" type="line"/>
      <point x="1569" y="603" type="line"/>
      <point x="1569" y="846" type="line"/>
      <point x="1381" y="846" type="line"/>
      <point x="1381" y="1073" type="line"/>
      <point x="1192" y="1073" type="line"/>
      <point x="1090" y="853" type="line"/>
      <point x="929" y="727" type="line"/>
      <point x="929" y="603" type="line"/>
      <point x="1071" y="603" type="line"/>
      <point x="1071" y="328" type="line" smooth="yes"/>
      <point x="1071" y="98"/>
      <point x="1166" y="-20"/>
    </contour>
  </outline>
</glyph>
<glyph name="rightarrowabovecomb" format="1">
  <advance width="0"/>
  <unicode hex="20D7"/>
  <note>
    rightarrowabovecomb
  </note>
  <outline>
    <contour>
      <point x="115" y="1245" type="line"/>
      <point x="371" y="1434" type="line"/>
      <point x="115" y="1622" type="line"/>
      <point x="115" y="1495" type="line"/>
      <point x="-371" y="1495" type="line"/>
      <point x="-371" y="1372" type="line"/>
      <point x="115" y="1372" type="line"/>
    </contour>
  </outline>
</glyph>
<glyph name="endofproof" format="1">
  <advance width="1143"/>
  <unicode hex="220E"/>
  <note>
    endofproof
  </note>
  <outline>
    <contour>
      <point x="104" y="0" type="line"/>
      <point x="1038" y="0" type="line"/>
      <point x="1038" y="1376" type="line"/>
      <point x="104" y="1376" type="line"/>
    </contour>
  </outline>
</glyph>
<glyph name="APLquadequal" format="1">
  <advance width="1491"/>
  <unicode hex="2338"/>
  <note>
    APLquadequal
  </note>
  <outline>
    <contour>
      <point x="342" y="864" type="line"/>
      <point x="1149" y="864" type="line"/>
      <point x="1149" y="1010" type="line"/>
      <point x="342" y="1010" type="line"/>
    </contour>
    <contour>
      <point x="342" y="453" type="line"/>
      <point x="1149" y="453" type="line"/>
      <point x="1149" y="598" type="line"/>
      <point x="342" y="598" type="line"/>
    </contour>
    <component base="APLquad"/>
  </outline>
</glyph>
<glyph name="APLquadjot" format="1">
  <advance width="1491"/>
  <unicode hex="233B"/>
  <note>
    APLquadjot
  </note>
  <outline>
    <contour>
      <point x="745" y="387" type="curve" smooth="yes"/>
      <point x="934" y="387"/>
      <point x="1090" y="543"/>
      <point x="1090" y="731" type="curve" smooth="yes"/>
      <point x="1090" y="924"/>
      <point x="934" y="1075"/>
      <point x="745" y="1075" type="curve" smooth="yes"/>
      <point x="555" y="1075"/>
      <point x="401" y="920"/>
      <point x="401" y="731" type="curve" smooth="yes"/>
      <point x="401" y="543"/>
      <point x="555" y="387"/>
    </contour>
    <contour>
      <point x="745" y="516" type="curve" smooth="yes"/>
      <point x="627" y="516"/>
      <point x="530" y="612"/>
      <point x="530" y="731" type="curve" smooth="yes"/>
      <point x="530" y="850"/>
      <point x="627" y="946"/>
      <point x="745" y="946" type="curve" smooth="yes"/>
      <point x="862" y="946"/>
      <point x="961" y="852"/>
      <point x="961" y="731" type="curve" smooth="yes"/>
      <point x="961" y="610"/>
      <point x="862" y="516"/>
    </contour>
    <component base="APLquad"/>
  </outline>
</glyph>
<glyph name="APLquadless-than" format="1">
  <advance width="1491"/>
  <unicode hex="2343"/>
  <note>
    APLquadlessthan
  </note>
  <outline>
    <contour>
      <point x="1278" y="295" type="line"/>
      <point x="1278" y="453" type="line"/>
      <point x="549" y="731" type="line"/>
      <point x="1278" y="1010" type="line"/>
      <point x="1278" y="1167" type="line"/>
      <point x="307" y="780" type="line"/>
      <point x="307" y="682" type="line"/>
    </contour>
    <component base="APLquad"/>
  </outline>
</glyph>
<glyph name="amalgamationOrCoproduct" format="1">
  <advance width="1329"/>
  <unicode hex="2A3F"/>
  <note>
    amalgamationOrCoproduct
  </note>
  <outline>
    <contour>
      <point x="104" y="-492" type="line"/>
      <point x="1225" y="-492" type="line"/>
      <point x="1225" y="1462" type="line"/>
      <point x="1040" y="1462" type="line"/>
      <point x="1040" y="-328" type="line"/>
      <point x="289" y="-328" type="line"/>
      <point x="289" y="1462" type="line"/>
      <point x="104" y="1462" type="line"/>
    </contour>
  </outline>
</glyph>
<glyph name="u1D798" format="1">
  <advance width="633"/>
  <unicode hex="1D798"/>
  <note>
    u1D798
  </note>
  <outline>
    <contour>
      <point x="27" y="0" type="line"/>
      <point x="338" y="0" type="line"/>
      <point x="606" y="1473" type="line"/>
      <point x="297" y="1473" type="line"/>
    </contour>
  </outline>
</glyph>
<glyph name="stretchedjeemArabic-math" format="1">
  <advance width="2105"/>
  <unicode hex="1EE62"/>
  <outline>
    <contour>
      <point x="1628" y="-2" type="curve"/>
      <point x="1663" y="31"/>
      <point x="1733" y="109"/>
      <point x="1759" y="147" type="curve"/>
      <point x="1714" y="188"/>
      <point x="1675" y="227"/>
      <point x="1624" y="283" type="curve"/>
      <point x="1587" y="240"/>
      <point x="1532" y="180"/>
      <point x="1481" y="131" type="curve"/>
      <point x="1524" y="84"/>
      <point x="1577" y="37"/>
    </contour>
    <component base="stretchedhahArabic-math"/>
    <contour>
      <point x="1212" y="1137" type="move" name="mark0"/>
    </contour>
    <contour>
      <point x="1409" y="57" type="move" name="mark1"/>
    </contour>
  </outline>
</glyph>
<glyph name="stretchedyehArabic-math" format="1">
  <advance width="1280"/>
  <unicode hex="1EE69"/>
  <outline>
    <contour>
      <point x="1001" y="-57" type="curve"/>
      <point x="1038" y="-23"/>
      <point x="1104" y="49"/>
      <point x="1124" y="84" type="curve"/>
      <point x="1083" y="121"/>
      <point x="1044" y="158"/>
      <point x="997" y="207" type="curve"/>
      <point x="963" y="166"/>
      <point x="913" y="111"/>
      <point x="866" y="70" type="curve"/>
      <point x="905" y="25"/>
      <point x="954" y="-20"/>
    </contour>
    <contour>
      <point x="694" y="-86" type="curve"/>
      <point x="727" y="-53"/>
      <point x="793" y="18"/>
      <point x="815" y="53" type="curve"/>
      <point x="774" y="90"/>
      <point x="735" y="129"/>
      <point x="690" y="176" type="curve"/>
      <point x="655" y="137"/>
      <point x="604" y="84"/>
      <point x="557" y="39" type="curve"/>
      <point x="596" y="-6"/>
      <point x="647" y="-49"/>
    </contour>
    <component base="stretcheddotlessbehArabic-math"/>
    <contour>
      <point x="893" y="1212" type="move" name="mark0"/>
    </contour>
    <contour>
      <point x="1001" y="-143" type="move" name="mark1"/>
    </contour>
  </outline>
</glyph>
<glyph name="I.ss01" format="1">
  <advance width="724"/>
  <note>
    g44
  </note>
  <outline>
    <contour>
      <point x="43" y="0" type="line"/>
      <point x="681" y="0" type="line"/>
      <point x="681" y="223" type="line"/>
      <point x="562" y="332" type="line"/>
      <point x="562" y="1130" type="line"/>
      <point x="681" y="1238" type="line"/>
      <point x="681" y="1462" type="line"/>
      <point x="43" y="1462" type="line"/>
      <point x="43" y="1238" type="line"/>
      <point x="164" y="1130" type="line"/>
      <point x="164" y="332" type="line"/>
      <point x="43" y="223" type="line"/>
    </contour>
    <contour>
      <point x="363" y="0" type="move" name="bottom"/>
    </contour>
    <contour>
      <point x="600" y="10" type="move" name="ogonek"/>
    </contour>
    <contour>
      <point x="363" y="1462" type="move" name="top"/>
    </contour>
    <contour>
      <point x="87" y="1462" type="move" name="topleft"/>
    </contour>
  </outline>
</glyph>
<glyph name="dagesh-hb.small" format="1">
  <advance width="1395"/>
  <outline>
    <contour>
      <point x="765" y="351" type="curve" smooth="yes"/>
      <point x="805" y="351"/>
      <point x="831" y="374"/>
      <point x="831" y="410" type="curve" smooth="yes"/>
      <point x="831" y="445"/>
      <point x="805" y="469"/>
      <point x="765" y="469" type="curve" smooth="yes"/>
      <point x="745" y="469"/>
      <point x="729" y="464"/>
      <point x="718" y="453" type="curve" smooth="yes"/>
      <point x="707" y="442"/>
      <point x="701" y="428"/>
      <point x="701" y="410" type="curve" smooth="yes"/>
      <point x="701" y="373"/>
      <point x="724" y="351"/>
    </contour>
    <contour>
      <point x="766" y="410" type="move" name="_center"/>
    </contour>
  </outline>
</glyph>
<glyph name="five.osf" format="1">
  <advance width="992"/>
  <note>
    g904
  </note>
  <outline>
    <contour>
      <point x="430" y="-335" type="curve" smooth="yes"/>
      <point x="739" y="-335"/>
      <point x="900" y="-156"/>
      <point x="900" y="188" type="curve" smooth="yes"/>
      <point x="900" y="290"/>
      <point x="883" y="377"/>
      <point x="851" y="447" type="curve" smooth="yes"/>
      <point x="793" y="573"/>
      <point x="685" y="642"/>
      <point x="536" y="642" type="curve" smooth="yes"/>
      <point x="495" y="642"/>
      <point x="458" y="636"/>
      <point x="425" y="624" type="curve"/>
      <point x="481" y="624" type="line"/>
      <point x="494" y="813" type="line"/>
      <point x="817" y="813" type="line"/>
      <point x="817" y="1147" type="line"/>
      <point x="146" y="1147" type="line"/>
      <point x="110" y="369" type="line"/>
      <point x="239" y="262" type="line"/>
      <point x="335" y="307"/>
      <point x="371" y="322"/>
      <point x="408" y="322" type="curve" smooth="yes"/>
      <point x="472" y="322"/>
      <point x="502" y="275"/>
      <point x="502" y="155" type="curve" smooth="yes"/>
      <point x="502" y="31"/>
      <point x="495" y="-16"/>
      <point x="419" y="-16" type="curve" smooth="yes"/>
      <point x="321" y="-16"/>
      <point x="152" y="40"/>
      <point x="95" y="78" type="curve"/>
      <point x="95" y="-259" type="line"/>
      <point x="170" y="-298"/>
      <point x="319" y="-335"/>
    </contour>
  </outline>
</glyph>
<glyph name="four.numr" format="1">
  <advance width="720"/>
  <note>
    foursuperior
  </note>
  <outline>
    <contour>
      <point x="355" y="586" type="line"/>
      <point x="599" y="586" type="line"/>
      <point x="599" y="723" type="line"/>
      <point x="714" y="723" type="line"/>
      <point x="714" y="918" type="line"/>
      <point x="599" y="918" type="line"/>
      <point x="599" y="1468" type="line"/>
      <point x="356" y="1468" type="line"/>
      <point x="6" y="905" type="line"/>
      <point x="6" y="723" type="line"/>
      <point x="355" y="723" type="line"/>
    </contour>
    <contour>
      <point x="188" y="918" type="line"/>
      <point x="200" y="930"/>
      <point x="230" y="972"/>
      <point x="276" y="1048" type="curve" smooth="yes"/>
      <point x="288" y="1068"/>
      <point x="338" y="1174"/>
      <point x="359" y="1233" type="curve"/>
      <point x="356" y="1158"/>
      <point x="355" y="1093"/>
      <point x="355" y="1040" type="curve" smooth="yes"/>
      <point x="355" y="918" type="line"/>
    </contour>
  </outline>
</glyph>
<glyph name="nine.osf" format="1">
  <advance width="979"/>
  <note>
    g908
  </note>
  <outline>
    <contour>
      <point x="335" y="-334" type="curve" smooth="yes"/>
      <point x="432" y="-334"/>
      <point x="531" y="-320"/>
      <point x="612" y="-279" type="curve" smooth="yes"/>
      <point x="815" y="-176"/>
      <point x="911" y="100"/>
      <point x="911" y="497" type="curve" smooth="yes"/>
      <point x="911" y="674"/>
      <point x="892" y="817"/>
      <point x="841" y="929" type="curve" smooth="yes"/>
      <point x="780" y="1063"/>
      <point x="666" y="1162"/>
      <point x="473" y="1162" type="curve" smooth="yes"/>
      <point x="211" y="1162"/>
      <point x="61" y="980"/>
      <point x="61" y="634" type="curve" smooth="yes"/>
      <point x="61" y="334"/>
      <point x="174" y="171"/>
      <point x="400" y="171" type="curve" smooth="yes"/>
      <point x="532" y="171"/>
      <point x="613" y="226"/>
      <point x="655" y="328" type="curve"/>
      <point x="564" y="328" type="line"/>
      <point x="562" y="240"/>
      <point x="547" y="146"/>
      <point x="536" y="122" type="curve" smooth="yes"/>
      <point x="484" y="9"/>
      <point x="432" y="-26"/>
      <point x="314" y="-26" type="curve" smooth="yes"/>
      <point x="234" y="-26"/>
      <point x="143" y="-11"/>
      <point x="125" y="-8" type="curve"/>
      <point x="125" y="-324" type="line"/>
      <point x="152" y="-327"/>
      <point x="257" y="-334"/>
    </contour>
    <contour>
      <point x="476" y="474" type="curve" smooth="yes"/>
      <point x="469" y="474"/>
      <point x="448" y="554"/>
      <point x="448" y="654" type="curve" smooth="yes"/>
      <point x="448" y="784"/>
      <point x="476" y="846"/>
      <point x="480" y="846" type="curve" smooth="yes"/>
      <point x="482" y="846"/>
      <point x="495" y="811"/>
      <point x="505" y="762" type="curve" smooth="yes"/>
      <point x="511" y="727"/>
      <point x="517" y="685"/>
      <point x="517" y="643" type="curve" smooth="yes"/>
      <point x="517" y="625"/>
      <point x="510" y="585"/>
      <point x="501" y="548" type="curve" smooth="yes"/>
      <point x="492" y="509"/>
      <point x="482" y="474"/>
    </contour>
  </outline>
</glyph>
<glyph name="zero.osf" format="1">
  <advance width="1024"/>
  <note>
    g899
  </note>
  <outline>
    <contour>
      <point x="511" y="-20" type="curve" smooth="yes"/>
      <point x="798" y="-20"/>
      <point x="942" y="181"/>
      <point x="942" y="576" type="curve" smooth="yes"/>
      <point x="942" y="965"/>
      <point x="797" y="1168"/>
      <point x="515" y="1168" type="curve" smooth="yes"/>
      <point x="231" y="1168"/>
      <point x="82" y="962"/>
      <point x="82" y="576" type="curve" smooth="yes"/>
      <point x="82" y="176"/>
      <point x="225" y="-20"/>
    </contour>
    <contour>
      <point x="514" y="291" type="curve" smooth="yes"/>
      <point x="502" y="291"/>
      <point x="466" y="407"/>
      <point x="466" y="576" type="curve" smooth="yes"/>
      <point x="466" y="736"/>
      <point x="503" y="855"/>
      <point x="512" y="855" type="curve" smooth="yes"/>
      <point x="523" y="855"/>
      <point x="559" y="738"/>
      <point x="559" y="576" type="curve" smooth="yes"/>
      <point x="559" y="416"/>
      <point x="521" y="291"/>
    </contour>
  </outline>
</glyph>
